<?xml version="1.0" encoding="UTF-8" standalone="no"?>
<!DOCTYPE svg PUBLIC "-//W3C//DTD SVG 1.1//EN" "http://www.w3.org/Graphics/SVG/1.1/DTD/svg11.dtd">
<svg width="100%" height="100%" viewBox="0 0 83 83" version="1.1" xmlns="http://www.w3.org/2000/svg" xmlns:xlink="http://www.w3.org/1999/xlink" xml:space="preserve" xmlns:serif="http://www.serif.com/" style="fill-rule:evenodd;clip-rule:evenodd;stroke-linecap:round;stroke-linejoin:round;stroke-miterlimit:10;">
    <g transform="matrix(1,0,0,1,-8.84321,-8.84084)">
        <path d="M69.49,22.213L75.021,16.68L83.324,24.98L77.79,30.516L77.788,30.514L55.309,52.994L51.188,57.115L60.691,47.612L88.006,75.092L80.304,90L73.986,88.764L72.796,82.444L66.476,81.214L65.288,74.893L58.968,73.656L57.781,67.34L51.464,66.106L50.273,59.79L48.811,59.492C40.11,68.194 32.83,75.474 32.83,75.475C32.797,75.508 32.763,75.54 32.729,75.571L30.753,77.551L10.002,90L22.452,69.248L24.526,67.172L24.528,67.174C23.382,68.319 23.382,70.178 24.528,71.323C25.101,71.898 25.853,72.184 26.604,72.183C25.853,72.184 25.102,71.897 24.529,71.323C23.383,70.177 23.383,68.318 24.529,67.174C24.527,67.172 69.489,22.212 69.489,22.212L69.49,22.213ZM28.646,71.354C27.533,72.501 27.543,74.341 28.676,75.475C28.945,75.743 29.252,75.949 29.581,76.091C29.253,75.949 28.945,75.743 28.677,75.475C27.534,74.331 27.534,72.468 28.677,71.323L28.65,71.35L28.646,71.354ZM36.537,50.917L40.087,51.613L52.416,39.283L46.092,32.924L32.135,41.539L35.262,44.685L36.537,50.917ZM47.705,28.885L28.938,10L28.725,10.217L26.109,12.83L29.648,16.389L18.354,27.68L14.815,24.121L11.996,26.941L26.77,41.804C27.799,42.84 29.666,43.061 30.916,42.291L47.309,32.172C48.561,31.402 48.737,29.921 47.705,28.885ZM41.811,30.449L29.846,37.402C29.21,37.775 28.269,37.652 27.755,37.132L20.905,30.243L32.197,18.95L42.027,28.831C42.542,29.35 42.446,30.078 41.811,30.449ZM83.324,24.977L75.022,16.676L80.556,11.144L80.553,11.145C82.081,9.618 84.562,9.618 86.09,11.144L88.854,13.913C90.379,15.442 90.379,17.92 88.854,19.447L88.858,19.446L83.324,24.977Z" style="fill:none;stroke:black;stroke-width:2.32px;"/>
    </g>
</svg>
