<?xml version="1.0" encoding="UTF-8" standalone="no"?>
<!DOCTYPE svg PUBLIC "-//W3C//DTD SVG 1.1//EN" "http://www.w3.org/Graphics/SVG/1.1/DTD/svg11.dtd">
<svg width="100%" height="100%" viewBox="0 0 772 264" version="1.1" xmlns="http://www.w3.org/2000/svg" xmlns:xlink="http://www.w3.org/1999/xlink" xml:space="preserve" xmlns:serif="http://www.serif.com/" style="fill-rule:evenodd;clip-rule:evenodd;stroke-linejoin:round;stroke-miterlimit:1.41421;">
    <g transform="matrix(1,0,0,1,-37,-291)">
        <path d="M37,291L809,291L809,555L37,555L37,291ZM218,489L223,489L223,553L218,553L218,489ZM415,489L419,489L419,553L415,553L415,489ZM611,489L615,489L615,553L611,553L611,489ZM47,521L51,521L51,553L47,553L47,521ZM96,521L100,521L100,553L96,553L96,521ZM145,521L149,521L149,553L145,553L145,521ZM72,513L76,513L76,553L72,553L72,513ZM120,503L124,503L124,553L120,553L120,503ZM169,513L173,513L173,553L169,553L169,513ZM267,513L271,513L271,554L267,554L267,513ZM316,503L320,503L320,553L316,553L316,503ZM193,521L197,521L197,553L193,553L193,521ZM243,521L247,521L247,553L243,553L243,521ZM292,521L296,521L296,553L292,553L292,521ZM365,513L369,513L369,553L365,553L365,513ZM341,521L345,521L345,553L341,553L341,521ZM390,521L394,521L394,553L390,553L390,521ZM465,513L469,513L469,553L465,553L465,513ZM440,521L444,521L444,553L440,553L440,521ZM489,521L493,521L493,553L489,553L489,521ZM561,513L565,513L565,553L561,553L561,513ZM537,521L541,521L541,553L537,553L537,521ZM587,521L591,521L591,553L587,553L587,521ZM660,513L664,513L664,553L660,553L660,513ZM636,521L640,521L640,553L636,553L636,521ZM684,521L688,521L688,553L684,553L684,521ZM513,503L517,503L517,553L513,553L513,503ZM709,503L713,503L713,553L709,553L709,503ZM758,513L762,513L762,553L758,553L758,513ZM734,521L738,521L738,553L734,553L734,521ZM782,521L786,521L786,553L782,553L782,521ZM44,294L47,294L47,331L44,331L44,294ZM52,294L55,294L55,331L52,331L52,294ZM60,294L63,294L63,331L60,331L60,294ZM68,294L71,294L71,331L68,331L68,294ZM76,294L79,294L79,368L76,368L76,294ZM82,294L85,294L85,331L82,331L82,294ZM90,294L93,294L93,331L90,331L90,294ZM98,294L101,294L101,331L98,331L98,294ZM106,294L109,294L109,331L106,331L106,294ZM121,294L125,294L125,331L121,331L121,294ZM129,294L133,294L133,331L129,331L129,294ZM137,294L141,294L141,331L137,331L137,294ZM145,294L149,294L149,331L145,331L145,294ZM161,294L164,294L164,331L161,331L161,294ZM169,294L172,294L172,331L169,331L169,294ZM177,294L180,294L180,331L177,331L177,294ZM185,294L188,294L188,331L185,331L185,294ZM199,294L202,294L202,331L199,331L199,294ZM207,294L210,294L210,331L207,331L207,294ZM215,294L218,294L218,331L215,331L215,294ZM223,294L226,294L226,331L223,331L223,294ZM237,294L241,294L241,331L237,331L237,294ZM245,294L249,294L249,331L245,331L245,294ZM253,294L257,294L257,331L253,331L253,294ZM261,294L265,294L265,331L261,331L261,294ZM276,294L279,294L279,331L276,331L276,294ZM284,294L287,294L287,331L284,331L284,294ZM292,294L295,294L295,331L292,331L292,294ZM300,294L303,294L303,331L300,331L300,294ZM315,294L318,294L318,331L315,331L315,294ZM323,294L326,294L326,331L323,331L323,294ZM331,294L334,294L334,331L331,331L331,294ZM339,294L342,294L342,331L339,331L339,294ZM353,294L356,294L356,331L353,331L353,294ZM361,294L364,294L364,331L361,331L361,294ZM369,294L372,294L372,331L369,331L369,294ZM377,294L380,294L380,331L377,331L377,294ZM391,294L395,294L395,331L391,331L391,294ZM399,294L403,294L403,331L399,331L399,294ZM407,294L411,294L411,331L407,331L407,294ZM416,294L419,294L419,331L416,331L416,294ZM431,294L434,294L434,331L431,331L431,294ZM439,294L442,294L442,331L439,331L439,294ZM447,294L450,294L450,331L447,331L447,294ZM455,294L458,294L458,331L455,331L455,294ZM469,294L472,294L472,331L469,331L469,294ZM477,294L480,294L480,331L477,331L477,294ZM485,294L488,294L488,331L485,331L485,294ZM493,294L496,294L496,331L493,331L493,294ZM507,294L511,294L511,331L507,331L507,294ZM515,294L519,294L519,331L515,331L515,294ZM523,294L527,294L527,331L523,331L523,294ZM531,294L535,294L535,331L531,331L531,294ZM546,294L550,294L550,331L546,331L546,294ZM554,294L558,294L558,331L554,331L554,294ZM562,294L566,294L566,331L562,331L562,294ZM570,294L574,294L574,331L570,331L570,294ZM585,294L588,294L588,331L585,331L585,294ZM593,294L596,294L596,331L593,331L593,294ZM601,294L604,294L604,331L601,331L601,294ZM609,294L612,294L612,331L609,331L609,294ZM623,294L626,294L626,331L623,331L623,294ZM631,294L634,294L634,331L631,331L631,294ZM639,294L642,294L642,331L639,331L639,294ZM647,294L651,294L651,331L647,331L647,294ZM662,294L666,294L666,331L662,331L662,294ZM670,294L674,294L674,331L670,331L670,294ZM678,294L682,294L682,331L678,331L678,294ZM686,294L690,294L690,331L686,331L686,294ZM701,294L704,294L704,331L701,331L701,294ZM709,294L712,294L712,331L709,331L709,294ZM717,294L720,294L720,331L717,331L717,294ZM725,294L728,294L728,331L725,331L725,294ZM777,294L781,294L781,331L777,331L777,294ZM785,294L789,294L789,331L785,331L785,294ZM793,294L797,294L797,331L793,331L793,294ZM801,294L805,294L805,331L801,331L801,294ZM739,294L742,294L742,331L739,331L739,294ZM747,294L750,294L750,331L747,331L747,294ZM755,294L758,294L758,331L755,331L755,294ZM763,294L767,294L767,331L763,331L763,294ZM153,294L156,294L156,368L153,368L153,294ZM114,294L118,294L118,346L114,346L114,294ZM191,294L194,294L194,346L191,346L191,294ZM268,294L272,294L272,346L268,346L268,294ZM307,294L310,294L310,368L307,368L307,294ZM230,294L233,294L233,368L230,368L230,294ZM539,294L542,294L542,368L539,368L539,294ZM462,294L465,294L465,368L462,368L462,294ZM384,294L388,294L388,368L384,368L384,294ZM346,294L349,294L349,346L346,346L346,294ZM423,294L426,294L426,346L423,346L423,294ZM501,295L504,295L504,347L501,347L501,295ZM578,294L581,294L581,346L578,346L578,294ZM655,294L658,294L658,346L655,346L655,294ZM732,296L735,296L735,348L732,348L732,296ZM616,294L619,294L619,368L616,368L616,294ZM693,296L696,296L696,370L693,370L693,296ZM770,294L773,294L773,368L770,368L770,294Z" style="fill:white;"/>
    </g>
</svg>
