<?xml version="1.0" encoding="UTF-8" standalone="no"?>
<!DOCTYPE svg PUBLIC "-//W3C//DTD SVG 1.1//EN" "http://www.w3.org/Graphics/SVG/1.1/DTD/svg11.dtd">
<svg width="100%" height="100%" viewBox="0 0 360 1400" version="1.1" xmlns="http://www.w3.org/2000/svg" xmlns:xlink="http://www.w3.org/1999/xlink" xml:space="preserve" style="fill-rule:evenodd;clip-rule:evenodd;stroke-linejoin:round;stroke-miterlimit:1.41421;">
    <g transform="matrix(1,0,0,1,-0.208394,0.208395)">
        <g id="f1f1f1" transform="matrix(6.12323e-17,1,-1,6.12323e-17,360.208,-0.208395)">
            <path d="M296.75,0.913C300.46,-0.577 304.39,1.543 307.22,3.903C312.02,8.103 316.21,13.543 322.6,15.363C331.99,18.363 341.87,19.923 350.82,24.233C356.78,26.693 361.76,31.113 368,32.933C373.38,34.613 377.52,38.723 382.87,40.403C386.9,41.903 391.29,42.913 394.66,45.753C406.18,56.703 412.12,71.753 419.83,85.323C427.94,100.073 421.13,121.503 405.18,127.713C394.83,131.103 383.53,130.003 373.29,126.803C359.66,122.513 347.35,115.103 334.85,108.363C330.57,106.143 326,104.553 321.49,102.883C309.03,98.493 296.35,94.503 283.28,92.373C253.04,86.783 223.5,75.383 192.34,76.473C185.87,76.083 179.37,78.843 174.94,83.523C173.4,84.913 172.93,87.773 175.07,88.863C195.74,101.813 218.63,110.653 241.57,118.663C270.04,128.363 298.73,138.193 324.95,153.163C343.71,163.993 363.48,173.253 380.86,186.313C383.97,188.543 387.26,190.863 391.13,191.503C394.49,192.113 396.7,188.793 397.24,185.903C399.65,174.343 396.76,161.983 401.35,150.813C404.36,152.823 408.29,155.653 411.92,153.383C416.73,149.963 418.03,143.573 422.44,139.743C426.76,135.923 433.44,136.073 438.29,138.813C444.99,142.573 449.72,148.923 453.78,155.283C463.61,169.273 468.06,186.643 480.1,199.143C494.53,191.753 505.66,179.493 515.38,166.783C523.24,156.633 530.47,145.973 538.93,136.293C544.43,129.723 552.75,125.543 561.32,125.223C567.28,125.013 573.42,127.023 577.63,131.353C584.65,137.953 587.12,147.683 589.28,156.733C591.72,167.093 594.15,178.043 601.37,186.263C611.53,171.583 612.02,152.443 622.6,138.003C626.07,132.963 630.09,127.783 630.63,121.473C630.5,117.423 625.48,117.423 622.61,116.343C616.85,115.483 615.45,106.573 620.33,103.693C625.17,99.163 633.37,104.613 637.61,99.053C640.45,96.013 641.43,90.343 646.32,89.993C669.45,85.163 693.54,87.053 716.33,92.743C731.5,96.723 746.54,101.883 760.07,109.933C773.9,118.093 785.87,129.463 794.41,143.083C796.79,143.723 800.37,143.583 801.03,140.623C802.38,132.843 798.9,125.333 798.35,117.653C798.3,116.293 798.21,114.693 799.39,113.733C803.8,111.543 809.63,111.443 813.58,114.683C819.47,119.543 822.33,126.863 825.71,133.483C830.32,143.063 835.23,153.473 844.76,159.103C863.39,144.273 881.78,128.993 901.98,116.283C906.34,113.593 910.61,110.643 915.43,108.813C925.21,104.943 936.42,105.013 946.25,108.663C953.86,111.713 960.96,115.903 967.95,120.173C972.53,123.153 977.43,125.843 981.17,129.923C983.39,132.243 986.03,134.803 989.48,134.733C993.3,134.313 995.87,131.173 998.79,129.033C1029.12,105.083 1064.79,86.613 1103.38,81.173C1128.28,77.503 1154.09,79.703 1177.86,88.043C1184.53,90.493 1190.31,95.173 1194.13,101.153C1204.16,116.783 1202.66,137.283 1214.19,152.153C1214.95,153.593 1216.38,152.133 1217.05,151.423C1220.29,148.013 1223.26,143.493 1228.36,142.893C1231.78,143.153 1230.27,147.553 1231.31,149.833C1234.53,158.933 1232.87,168.723 1231.07,177.933C1229.96,184.953 1228.01,192.263 1230.03,199.303C1231.32,203.863 1235.79,206.723 1240.32,207.293C1284.54,213.683 1330.23,211.213 1373.12,198.383C1382.25,195.713 1391.17,192.438 1400,188.917L1400,273.497C1396.33,272.986 1392.7,272.223 1389.12,271.173C1369.73,265.833 1349.72,263.023 1329.67,261.813C1278.26,258.753 1226.91,266.393 1175.47,264.153C1172.2,264.163 1168.36,262.593 1167.78,259.003C1166.72,248.293 1173.38,236.763 1167.18,226.723C1146.9,236.123 1126.55,245.453 1105.59,253.273C1088.12,259.893 1070.05,265.113 1051.53,267.793C1037.26,269.823 1022.97,271.943 1008.56,272.673C992.27,273.503 975.32,272.563 960.23,265.793C949.01,260.753 939.7,251.793 934.08,240.863C930.56,234.013 927.23,226.333 928.79,218.473C930.53,208.513 936.97,200.273 943.33,192.733C945.38,190.103 948.62,187.733 948.4,184.013C948.75,181.843 947.15,179.603 944.92,179.483C928.46,177.003 911.24,179.333 896.14,186.383C880.84,193.483 868.06,205.943 860.81,221.183C850.83,242.503 853.57,266.713 849.01,289.263C846.86,294.373 840.41,295.663 835.43,295.283C831.07,295.223 827.61,292.363 824.23,289.993C811.02,280.683 799.63,268.783 790.91,255.173C786.3,247.093 788.45,237.533 788.39,228.743C788.62,222.153 786.86,215.253 782.23,210.373C770.08,221.913 753.47,226.603 737.57,230.313C722.81,233.903 707.56,237.573 694.96,246.453C693.02,248.513 692.83,252.143 694.27,254.563C696.91,255.713 700.3,255.363 702.32,257.763C707.08,262.713 703.56,271.513 697.69,273.883C691.95,276.143 685.62,275.243 679.63,276.183C677.78,277.253 676.75,279.273 675,280.453C666.36,282.373 657.58,279.593 649.81,275.913C647.95,277.543 645.12,278.973 645.1,281.793C645.18,297.763 648.45,313.453 650.61,329.223C651.906,339.372 652.81,349.814 651.526,360L613.705,360C604.31,327.178 599.638,293.195 592.49,259.843C591.66,255.703 588.78,252.393 585.8,249.583C577.68,242.333 566.72,237.183 562.38,226.583C558.35,217.843 560.16,207.003 553.78,199.283C552.03,196.623 547.39,195.883 545.45,198.633C537.23,214.673 535.59,233.293 526.49,248.953C521.13,257.863 513.54,265.843 503.88,270.023C498.78,272.263 493.52,274.173 488.11,275.523C479.52,276.763 470.75,276.283 462.16,275.243C453.83,274.063 445.18,271.993 438.54,266.543C430.36,260.053 425.6,250.203 417.07,244.103C413.95,241.833 409.49,239.843 405.97,242.473C399.34,247.123 397.11,256.323 389.46,259.813C370.19,269.273 348.14,268.103 327.27,268.233C270.33,269.943 213.33,264.163 156.45,268.793C130.05,273.073 103.69,278.123 76.97,280.053C62.59,281.483 47.44,284.023 33.57,278.563C26.3,275.943 20.77,270.413 14.87,265.693C11.95,264.283 9.82,261.683 6.91,260.303C4.639,259.939 2.326,259.717 0,259.526L0,192.628C60.791,200.041 122.14,202.27 183.32,203.433C212.9,203.763 242.49,204.553 272.05,203.073C275.27,202.633 279.48,202.043 280.77,198.533C280.2,195.193 280.59,190.823 277.4,188.713C253.1,169.813 225.61,155.603 198.02,142.193C181.99,133.973 165.24,127.263 148.6,120.403C136.74,115.243 125.63,108.553 113.94,103.023C109.03,100.323 102.41,98.663 100.57,92.653C98.6,80.543 99.12,66.953 106.53,56.653C112.59,48.093 122.91,44.323 132.52,41.313C144.99,37.383 158.18,38.473 171.06,37.793C208.66,36.683 246.44,35.323 283.5,28.333C285.79,27.583 289.21,28.223 290.41,25.673C289.79,21.273 285.75,17.013 288,12.483C290.239,8.233 292.419,3.413 296.75,0.913ZM666.67,144.343C662.03,145.313 660.21,150.393 659.63,154.563C655.3,183.033 642.42,210.343 644.59,239.633C643.99,242.923 648.13,244.893 650.64,243.083C657.65,239.043 660.04,230.413 666.69,225.973C669.06,224.183 672.08,223.863 674.82,222.933C677.74,221.343 679.65,218.503 682.03,216.263C684.24,214.313 687.13,213.453 689.75,212.223C700.2,207.503 710.83,202.543 719.3,194.653C722.96,191.083 727.17,187.113 727.35,181.633C727.11,176.013 723.37,171.333 719.55,167.533C711.28,159.633 702.55,151.863 692.1,146.983C684.26,143.193 675.11,142.053 666.67,144.343ZM1116.9,124.513C1104.61,126.703 1093.1,131.793 1081.97,137.263C1070.78,142.473 1059.63,147.913 1049.55,155.083C1034,165.783 1020.97,180.193 1012.21,196.923C1011.86,201.483 1016.15,204.903 1019.37,207.573C1028.87,215.023 1041.52,216.993 1053.28,215.973C1067.76,214.833 1081.99,211.313 1096.54,210.903C1110.01,209.933 1123.54,208.643 1136.65,205.233C1151.08,201.583 1165.18,194.723 1175.13,183.403C1178.76,179.493 1179.92,173.783 1179.04,168.623C1177.89,161.163 1174.29,154.323 1170.04,148.193C1163.94,139.673 1156.3,131.853 1146.63,127.493C1137.38,123.243 1126.81,122.593 1116.9,124.513Z" style="fill:rgb(241,241,241);"/>
        </g>
    </g>
</svg>
