<svg viewBox="0 0 1440 197" xmlns="http://www.w3.org/2000/svg"><path d="M1113.27 9.29c25.66-9.32 54.16-11.65 80.65-4.49 5.45 1.63 11.22 2.91 15.74 6.59 7.54 5.76 10.73 15.2 12.87 24.08 2.42 8.57 4.18 17.82 10.24 24.72 3.25-3.67 6.4-8.1 11.7-8.7 1.98 6.84 3.66 14.01 2.47 21.16-.78 7.79-3.83 15.51-2.52 23.4.64 3.75 3.65 7.03 7.54 7.43 44.75 7.28 91.6 1.75 133.32-16.05 4.71-.75 8.73 2.73 12.58 4.94 14.41 10.26 26.26 23.6 38.08 36.64 2.36 2.69 4.84 6.24 3.61 10-2.23 7.37-9.29 11.92-16.28 14.13-13.05 3.48-26.62 6.36-40.18 4.6-4.92-.31-9.55-2.01-14.28-3.21-7.66-1.66-15.32-3.42-23.08-4.51-45.11-5.99-90.48.82-135.71.23-4.44-.05-9.05.33-13.27-1.28-2.58-1.27-2.84-4.53-2.47-7.03.69-7.35 3.7-15.27-.23-22.22-31.1 14.35-62.72 29.32-97.04 33.82-18.92 2.26-38.23 5.75-57.16 1.73-12.43-2.23-24.33-9.12-31.23-19.88-4.33-6.95-8.42-15.02-6.65-23.46 2-8.99 8.39-16.03 14.15-22.87 1.84-1.89 2.63-5.7-.14-7.16-24.64-4.72-52.29 5.82-65.55 27.58-9.95 15.63-9.43 34.85-11.25 52.61-.87 3.79-.25 8.8-3.96 11.2-3.84 2.41-9.13 2.72-13.13.53-11.59-7.42-21.77-17.09-29.57-28.46-4.36-5.38-4.64-12.77-3.9-19.36.75-6.71-.07-14.16-4.73-19.4-9.84 9.28-23.22 12.98-36.01 16.08-11.71 2.64-23.63 5.8-33.72 12.55-2.24 1.49-2.11 4.59-1.27 6.84 2.61.57 5.83.83 7.39 3.35 2.43 4.02.37 9.67-3.55 11.94-4.78 2.33-10.24 1.47-15.32 2.36-1.59.67-2.53 2.32-3.75 3.46-7.11 1.26-14.24-.69-20.64-3.68-1.16 1.04-2.3 2.08-3.42 3.13-.28 11.57 1.67 23.02 3.69 34.37H740.8c-2.99-13.3-4.92-26.79-7.89-40.09-1.3-5.81-1.17-12.53-5.69-17.02-6.85-7.05-17.21-11.26-20.84-21.02-3.3-7.04-1.5-16.12-7.32-21.96-1.62-2.04-5.28-1.7-6.27.77-7.47 15.34-8.19 33.99-20.06 47.08-9.42 10.92-24.62 16.01-38.8 14.88-8.46-.69-17.37-1.4-24.73-6.06-8.5-5.64-12.79-15.69-21.47-21.13-6.84-13.38-12.58-27.56-14.82-42.49.38-3.28 1.43-6.46 1.56-9.78.47-7.36-.6-15.05 2.35-22.05 2.49 1.63 5.58 3.76 8.63 2.22 4.58-3.56 5.48-10.77 11.42-12.79 6.15-2.33 12.4 1.7 16.38 6.17 7.12 8.1 11.97 17.85 16.64 27.49 2.79 5.77 6.22 11.24 10.55 16 16.74-8.64 27.27-24.82 38.3-39.41 3.94-5.06 7.6-10.46 12.44-14.73 6.58-5.26 16.3-7.67 24.03-3.48 7.19 4 10.49 12.17 12.42 19.75 2.16 9.61 4.2 19.65 10.43 27.58 8.23-12.11 8.58-27.82 17.46-39.57 2.76-4.27 6.61-8.78 5.82-14.22-2.69-2.54-7.46-1.62-9.6-4.89-1.06-2.4-1.33-5.86.98-7.64 3.7-4.17 10.41.36 14.13-3.78 2.55-2.42 3.28-7.15 7.25-7.7 18.19-4.02 37.18-2.51 55.18 1.79 18.21 4.48 36.36 11.56 50.45 24.3 5.43 4.64 9.58 10.49 13.86 16.15 1.16 1.66 3.11.46 4.71.35 2.56-7.47-2.17-14.99-1.36-22.57 1.29-1.94 4.01-1.86 6.08-2.26 6.44.08 10.27 6.1 12.92 11.19 5.02 9.44 8.57 20.78 18.16 26.7 17.64-13.68 34.73-28.38 54.3-39.32 6.37-2.95 13.63-4.4 20.6-3.1 8.38 1.25 15.67 5.84 22.85 10.04 4.38 2.77 8.99 5.33 12.58 9.15 1.8 1.78 3.91 3.91 6.67 3.73 3.44-.86 5.75-3.76 8.54-5.75 16.27-12.6 34.19-23.33 53.63-30.24m42.16 27.49c-10.87 1.77-21 6.24-30.79 11.08-10.99 5.04-21.82 10.71-31.19 18.42-9.18 7.31-16.85 16.42-22.7 26.57-.8 1.47-2.18 3.01-1.39 4.8 2.4 4.53 6.76 7.57 11.22 9.87 11.31 5.24 24.2 3.42 36.06 1.41 5.34-1.09 10.82-1.12 16.19-2.03 11.51-.32 22.96-1.88 34.24-4.16 12.01-2.87 23.89-8.06 32.46-17.21 3.33-3.52 5.1-8.73 3.8-13.5-2.22-10.53-8.94-19.61-16.88-26.61-8.37-7.36-20.06-10.58-31.02-8.64M785.35 60.91c-2.6 15.9-7.92 31.17-10.93 46.97-.96 8.08-2.44 16.3-.9 24.41.63.32 1.89.96 2.53 1.28 7.39-2.83 9.04-12.05 15.99-15.46 1.82-.9 3.85-1.24 5.74-1.99 2.85-1.85 4.49-5.13 7.61-6.62 9.6-4.27 19.53-8.5 27.42-15.63 3.1-2.94 6.49-6.26 6.88-10.78-.77-5.94-5.32-10.3-9.55-14.08-6.74-6.49-14.4-12.31-23.3-15.44-5.01-1.49-10.43-1.42-15.54-.53-3.81.5-5.62 4.45-5.95 7.87zM262.71 27.53c6.28-8.46 17.56-9.91 27.32-10.67 11.84-.4 24.01-.79 35.45 2.77 3.83 1.48 7.82 4.26 8.64 8.56 12.9 46.14 25.73 92.3 38.44 138.49-19.04-.06-38.08-.01-57.12-.02-1.93-7.88-4.48-15.6-6.39-23.48-28.34-.15-56.68-.09-85.02-.03-5.32 7.87-10.81 15.61-16.15 23.47-15.44.15-30.88-.12-46.32.13 13.1-17.38 25.55-35.24 38.46-52.76 20.88-28.83 41.77-57.66 62.69-86.46m14.58 41.88c-10.64 14.96-21.47 29.78-32.1 44.75h44.79c3.31-.02 6.64.2 9.93-.36 1.18 5.72 4.01 11 4.78 16.81.91 2.69 1.63 5.45 2.83 8.04-.55-3.9-.95-8.1-2.93-11.62-2.57-6.98-3.72-14.34-5.96-21.41-3.24-11.8-6.4-23.62-9.76-35.39-.6-2.67-3.06-5.19-5.98-4.77-2.55-.08-4.27 2.07-5.6 3.95zM6.71 18.04c1.42-.07 2.85-.14 4.28-.15 64.49.01 128.99 0 193.48.01-2.15 10.92-4.49 21.82-6.43 32.79-22.39.43-44.79.05-67.18.19-6.94 38.57-13.37 77.24-20.5 115.78-20.76-.03-41.52.03-62.28-.03 6.76-38.59 13.47-77.19 20.44-115.75-22.6-.02-45.2-.01-67.8-.01 2.13-10.92 3.83-21.91 5.99-32.83zm419.44 4.15c5.92-3.71 13.09-4.06 19.88-4.3 41.87 0 83.74.01 125.62 0-1.48 10.99-4.12 21.79-5.61 32.77-29.66.55-59.38-.06-89.05.31-8.51.27-16.77 6.66-18.1 15.24-1.16 7.12-2.73 14.17-3.83 21.31-1.54 10.5-4.08 20.85-5.48 31.38-.43 3.54-.68 7.73 1.99 10.51 3.61 4.03 9.4 4.24 14.43 4.35 28.46.03 56.91 0 85.37.02-1.78 10.99-4.05 21.89-5.82 32.89-41.75-.05-83.49.03-125.24-.04-8.59.14-17.35-3.76-22.31-10.89-3.75-5.76-5.08-12.93-3.98-19.69 5.07-29.35 10.17-58.69 15.32-88.02 2.02-10.27 7.27-20.69 16.81-25.84z" fill="#dfdfdf"/></svg>