<svg width="100" height="100" xmlns="http://www.w3.org/2000/svg"><path d="M50.111 0C22.394-.11 0 22.334 0 49.89 0 73.444 16.297 93.11 38.138 98.555c.886-.889 1.773-1.223 1.773-1.223-.111.667-.111 1.111 0 1.667 3.216.667 6.652 1 10.089 1 4.546 0 8.98-.667 13.082-1.777.111-1.112-.11-2.778-.11-2.778.554.89.775 1.778.886 2.556 20.842-6 36.142-25.222 36.142-48 0-27.556-22.394-50-49.889-50ZM36.363 37.445c-1.663-2.777-2.882-4.333-2.882-4.333 2.107 1.333 4.546 2.444 7.207 3.223-1.996.444-3.438.888-4.325 1.11Zm26.72 2v15.444H37.25V39.333c-.001.002 10.976-3.888 25.831.112ZM64.08 57c-1.22.556-2.771 1-4.102 1.333-2.994.889-6.43 1.223-9.867 1.223-4.767 0-9.091-.889-12.971-2.223a349.17 349.17 0 0 0-.998-.333H64.08Zm-.666-19.555c-1.44-.444-2.993-.889-4.434-1.112 2.771-.777 5.211-1.888 7.428-3.11-1.441 1.889-2.55 3.667-2.994 4.222Zm15.41 4.111c-1.22 6.444-6.54 11.889-13.857 15.111l13.857-15.11ZM72.95 19.445l3.325 3.667s-2.77 2-3.658 3c.998-3.333.333-6.667.333-6.667ZM63.637 9.001l1.44 1.555c-.997-.667-2.217-1.11-3.436-1.555h1.996ZM36.586 9h1.995c-1.22.444-2.439 1-3.437 1.555l1.442-1.555ZM50 9c11.53 0 20.953 5.888 20.953 13.222 0 7.333-9.312 13.223-20.953 13.223-11.53 0-20.953-5.889-20.953-13.223 0-7.334 9.312-13.222 20.953-13.222ZM27.272 19.223s-1.44 3.778.776 7.445c0 0-3.216-3.112-3.991-3.556l3.215-3.889Zm-4.212 6.222s6.984 4.111 12.639 13.777v14.444L23.06 40.222V25.445Zm12.194 31.111c-7.538-3.223-12.75-8.889-13.968-15.333l13.968 15.333Zm28.493 31c0 4.555-6.985 7.555-6.985 7.555-10.2 4.223-17.628-.667-17.628-.667-6.43-5 .776-9 .776-9-.666 3.889 2.55 6.223 2.55 6.223 4.546 3.333 12.971 1 12.971 1 4.989-1.111 6.985-5.111 6.985-5.111.775-.889.222-3.777.222-3.777 1.22 1.555 1.109 3.777 1.109 3.777Zm0-11.666c0 4.556-6.985 7.556-6.985 7.556-10.2 4.222-17.628-.667-17.628-.667-6.43-5 .776-9 .776-9C39.244 77.667 42.46 80 42.46 80c4.546 3.333 12.971 1 12.971 1 4.989-1.111 6.985-5.111 6.985-5.111.775-.889.222-3.777.222-3.777 1.22 1.666 1.109 3.777 1.109 3.777Zm-.554-14.556c.555 1.445.444 3 .444 3 0 4.556-6.985 7.556-6.985 7.556-10.2 4.223-17.628-.667-17.628-.667-6.097-4.777 0-8.556.776-9-9.756-2.667-17.073-8.889-19.069-16.556 3.105 7.333 10.976 13 20.842 15.112 2.771.555 5.544.888 8.537.888.776 0 1.33 0 2.107-.111 12.86-.667 23.503-7 27.272-15.778-1.772 6.89-7.981 12.668-16.296 15.556Zm-13.305 2.22c4.656 0 9.09-.776 12.97-2.11 0 1 0 2.332-.442 2.888 0 0-1.996 4-6.985 5.111 0 0-8.425 2.333-12.971-1 0 0-3.216-2.222-2.771-6.11a43.425 43.425 0 0 0 10.199 1.222Z" fill="#000" fill-rule="evenodd"/></svg>