<svg viewBox="0 0 100 100" xmlns="http://www.w3.org/2000/svg"><path d="M50.111 0C22.394-.11.001 22.336.001 49.89c0 23.556 16.296 43.22 38.137 48.667.886-.89 1.773-1.223 1.773-1.223-.11.667-.11 1.11 0 1.667 3.216.667 6.652 1 10.09 1 4.545 0 8.98-.667 13.081-1.777.111-1.112-.11-2.778-.11-2.778.554.89.775 1.778.886 2.556C84.7 92 100 72.78 100 50c0-27.556-22.394-50-49.889-50ZM36.363 37.447c-1.663-2.777-2.882-4.333-2.882-4.333 2.107 1.333 4.546 2.444 7.207 3.223-1.996.444-3.438.888-4.325 1.11Zm26.72 2V54.89H37.25V39.335c0 .002 10.976-3.888 25.831.112h.002ZM64.08 57c-1.22.556-2.77 1-4.102 1.333-2.994.889-6.43 1.223-9.867 1.223-4.767 0-9.09-.89-12.97-2.223L36.141 57H64.08Zm-.666-19.555c-1.44-.444-2.993-.89-4.434-1.112 2.771-.777 5.211-1.888 7.428-3.11-1.44 1.889-2.55 3.667-2.994 4.222Zm15.41 4.11c-1.22 6.445-6.54 11.89-13.857 15.112l13.857-15.11v-.002Zm-5.874-22.11 3.325 3.667s-2.77 2-3.658 3c.998-3.333.333-6.667.333-6.667ZM63.637 9.003l1.44 1.555c-.997-.667-2.217-1.11-3.436-1.555h1.996ZM36.587 9h1.994c-1.22.444-2.439 1-3.437 1.555L36.586 9ZM50 9c11.53 0 20.953 5.888 20.953 13.222 0 7.333-9.312 13.223-20.953 13.223-11.53 0-20.953-5.89-20.953-13.223C29.047 14.89 38.36 9 50 9ZM27.272 19.225s-1.44 3.778.776 7.445c0 0-3.216-3.112-3.99-3.556l3.214-3.89Zm-4.212 6.222s6.984 4.11 12.64 13.777v14.444L23.06 40.224V25.447Zm12.194 31.11c-7.538-3.222-12.75-8.888-13.968-15.332l13.968 15.333v-.001Zm28.493 31c0 4.556-6.985 7.556-6.985 7.556-10.2 4.223-17.628-.667-17.628-.667-6.43-5 .776-9 .776-9-.666 3.889 2.55 6.223 2.55 6.223 4.546 3.333 12.971 1 12.971 1 4.99-1.111 6.985-5.111 6.985-5.111.775-.89.222-3.777.222-3.777 1.22 1.555 1.11 3.777 1.11 3.777v-.001Zm0-11.665c0 4.556-6.985 7.556-6.985 7.556-10.2 4.222-17.628-.667-17.628-.667-6.43-5 .776-9 .776-9-.666 3.888 2.55 6.22 2.55 6.22 4.546 3.334 12.971 1 12.971 1 4.99-1.11 6.985-5.11 6.985-5.11.775-.89.222-3.777.222-3.777 1.22 1.666 1.11 3.777 1.11 3.777Zm-.554-14.556c.555 1.445.444 3 .444 3 0 4.556-6.985 7.556-6.985 7.556-10.2 4.223-17.628-.667-17.628-.667-6.097-4.777 0-8.556.776-9-9.756-2.667-17.073-8.89-19.069-16.556 3.105 7.333 10.976 13 20.842 15.112 2.771.555 5.544.888 8.537.888.776 0 1.33 0 2.107-.111 12.86-.667 23.503-7 27.272-15.778-1.772 6.89-7.98 12.668-16.296 15.556Zm-13.305 2.22c4.656 0 9.09-.776 12.97-2.11 0 1 0 2.332-.442 2.888 0 0-1.996 4-6.985 5.11 0 0-8.425 2.334-12.97-1 0 0-3.217-2.221-2.772-6.11a43.43 43.43 0 0 0 10.2 1.223v-.001Z" fill="#000" fill-rule="evenodd"/></svg>