<svg viewBox="0 0 99 86" xmlns="http://www.w3.org/2000/svg"><path d="M49.986 49.372c38.143-1.998 39.681-22.916 39.681-22.916C88.13-.306 50.14.156 50.14.156c-41.988.615-39.682 26.3-39.682 26.3s1.385 21.84 39.528 22.916Zm.154-3.383c-10.15 0-19.072-2.922-25.225-7.536 3.384-2.615 7.998-5.076 13.074-6.46 3.691-.923 7.69-1.538 11.997-1.538h.307c4.307 0 8.306.46 11.997 1.538 5.076 1.385 9.69 3.538 13.074 6.46-6.152 4.613-15.073 7.536-25.224 7.536Zm27.992-9.844c-10.766-11.535-28.146-10.92-28.146-10.92s-15.534-.923-28.146 10.92c-.77-.615-1.847-2-1.847-2 1.231-1.998 2.922-3.69 4.77-5.382 5.842-5.076 14.763-7.998 25.07-7.998 10.15 0 19.07 3.23 25.07 7.998 2.306 1.692 3.844 3.383 5.075 5.383 0 0-1.077 1.537-1.846 1.999Zm-55.985-23.07c6-5.692 16.15-9.69 27.84-9.69 11.534 0 21.992 3.998 27.837 9.69 0 0 9.844 9.382 3.384 18.917-3.384-9.382-15.84-16.303-31.068-16.303-14.92 0-27.685 7.075-31.376 16.303 0 0-6.306-10.15 3.383-18.917ZM30.145 0c-3.23 1.23-6.305 2.46-8.92 4.307L24.915 0h5.23ZM18.302 30.147c-.154-.77-.307-1.692-.307-2.46 0-1.846.461-3.691 1.23-5.538C28.76 6.154 50.14 6.46 50.14 6.46s20.302-1.23 30.914 15.688c.77 1.845 1.23 3.692 1.23 5.538 0 .923-.153 1.538-.153 2.46-.77-3.691-2.615-7.075-5.844-9.997-26.608-21.071-52.14 0-52.14 0-3.23 2.92-5.23 6.306-5.845 9.997ZM.308 26.3s4.922-4.46 7.997-8.46c0 0-4.152 8.152 1.231 16.304C6.153 30.454.308 26.3.308 26.3ZM79.055 4.308A60.047 60.047 0 0 0 70.135 0h5.23l3.69 4.307Zm12.458 27.53c2.768-7.382.308-13.995.308-13.995s4.614 4.768 7.075 7.844c.153 0-2.769 1.69-7.383 6.15ZM74.287 56.293v29.223H25.84V56.139s23.685-6.92 48.447.154Zm2.461 27.993 18.456-22.301 3.692-33.221v35.374L76.748 84.286ZM33.99 50.448c-4.306.77-8.92 2.307-8.92 2.307-2-3.384-6.614-9.383-6.614-9.383 4.307 3.077 9.69 5.385 15.534 7.076Zm47.218-6.767c-3.23 4.46-5.538 7.998-6.46 9.075-2.922-.77-6.15-1.692-9.228-2.153 6.153-1.538 11.382-4 15.688-6.922ZM22.916 54.755V82.13h-.153L0 57.985v-28.3s10.46 6.152 22.916 25.07Z" fill="#000" fill-rule="evenodd"/></svg>