<svg viewBox="0 0 42 43" xmlns="http://www.w3.org/2000/svg"><title>Shape</title><path d="M39.586.164c.636 0 1.182.227 1.637.682.454.455.682 1 .682 1.637V39.75c0 .636-.228 1.182-.682 1.637-.455.454-1 .682-1.637.682H28.92V25.835h5.428l.818-6.33H28.92V15.47c0-1.02.212-1.783.64-2.293.427-.51 1.26-.763 2.496-.763l3.328-.028V6.74c-1.145-.165-2.764-.247-4.856-.247-2.473 0-4.45.728-5.934 2.183-1.482 1.455-2.223 3.51-2.223 6.166v4.665h-5.455v6.33h5.456v16.232H2.32c-.638 0-1.183-.23-1.638-.683-.455-.455-.682-1-.682-1.637V2.483C0 1.846.227 1.3.682.846c.455-.455 1-.682 1.637-.682h37.266z" fill-rule="nonzero" fill="#FFF"/></svg>