<svg viewBox="0 0 86 98" xmlns="http://www.w3.org/2000/svg" fill-rule="evenodd" clip-rule="evenodd" stroke-linejoin="round" stroke-miterlimit="1.414"><path d="M81.078 26.533c-.797-.858-1.46-1.266-2.088-1.28-.716-.02-1.222.47-1.71.946-.284.274-.576.558-.906.74l-.046.025-.034.04c-1.637 1.904-2.024 1.638-2.96.99l-.238-.16c-.286-.225-.54-.41-.735-.553-2.422-2.64-4.916-1.725-6.584-1.11-.247.09-.48.176-.703.246-1.597.557-5.053 2.09-5.2 2.155l-.05.03c-.007.004-.684.478-3.687 2.103-7.152 3.376-20 14.537-21.69 16.105l-.205.19.18.213c1.38 1.63 1.37 1.784 1.067 2.34-.327.206-.66-.096-1.3-.862-.206-.246-.42-.503-.635-.693l-.163-.144-.187.113c-4.154 2.588-13.49 14.064-17.478 18.966-.634.778-1.134 1.393-1.42 1.733l-.013.015c-1.875 2.562-4.342 7.302-5.278 9.56-1.647 3.434.114 5.55.425 5.887.943 2.106.736 3.438.145 3.785l-.026.02c-1.403 1.04-2.168 1.995-2.275 2.83-.056.44.096.708.152.79.07.117.764 1.297 1.787 3.203.393.928.81 1.44 1.273 1.576.35.806 1.636 2.494 5.747-.997 1.742.376 16.125-.215 16.125-.215l4.43-5.102S47.97 76.08 54.462 71.058c3.518-2.863 10.14-8.604 22.974-17.312 1.49-1.183 1.977-1.732 2.326-4.146.65-2.03 1.384-9.247 2.848-13.79.47-1.203 1.345-2.357 2.028-3.072.338-1.562.875-1.87-.39-2.937-.344-.394-1.593-1.806-3.17-3.267zm.084 5.246s-1.4 1.496-.515 2.665l-2.71 14.26s.465 1.36-1.63 2.106c-2.96 1.748-21.28 13.554-24.647 17.87-3.882 2.898-17.605 18.806-20.444 22.83-.666 1.214-.54 1.995-3.92 1.143-1.97.235-10.46.74-11.82 1.205-1.01-.658-1.72-.995-1.72-.995l-3.13 2.9c-.15-.065-.476-.312-.87-1.247l-.012-.024c-1.083-2.02-1.805-3.236-1.81-3.248l-.02-.025c-.005-.01-.572-.907 1.98-2.812.585-.352.838-1.092.764-2.068.572.904 1.31 1.905 2.145 2.653-.023-.01-.048-.017-.07-.026l1.263 1.22s1.11 1.627 3.606 1.17c2.294-.532 12.873-3.438 12.873-3.438s1.937-.2 3.62-2.824c1.81-2.343 10.308-13.935 15.708-18.276C55.218 62.066 63.6 55.358 69.26 53.163c2.592-1.073 3.04-2.02 4.226-4.18 1.198-2.57 4.182-10.38 4.182-10.38s1.873-3.992.407-5.287c-.51-.753-1.16-1.438-1.494-1.775-.496-.884-1.27-1.744-2.047-2.474.56-.072 1.208-.527 2.17-1.64.377-.217.686-.518.984-.807.44-.428.818-.795 1.288-.783.455.01 1.006.372 1.682 1.104l.018.017c1.21 1.12 2.226 2.213 2.777 2.826-.725.84-2.29 1.996-2.29 1.996zM9.548 78.477c.93-2.242 3.362-6.916 5.21-9.443.292-.346.79-.96 1.42-1.732 3.907-4.805 12.978-15.954 17.143-18.715.136.14.273.306.418.48.552.66 1.308 1.568 2.15.918l.05-.038.028-.054c.534-.975.264-1.435-.92-2.84 2.325-2.107 14.49-12.587 21.353-15.825 2.778-1.505 3.586-2.032 3.734-2.133.32-.143 3.625-1.603 5.122-2.123.227-.072.467-.16.72-.253 1.625-.597 3.616-1.328 5.674.67l-.05.075c.008.006.148.1.376.263.054.06.108.122.163.187l.035.042.047.026c.18.098.34.2.493.302 1.156.905 2.885 2.43 3.55 3.905-.17.916-.638 2.447-1.954 4.083-.96 1.686-2.488 3.9-4.185 8.657-.317 1.09-.797 2.863-5.07 4.698-2.043 1.23-11.677 6.444-17.91 12.75.995 1.072 2.19 2.22 1.476 2.88-.712.66-1.65-.063-2.968-1.63C44.65 64.694 35.06 74.11 31.53 80.04c-1.157 1.47-2.01 3.988-5.894 4.666-2.37.736-7.94 2.316-8.94 3.242-.783.542-1.83 1.075-2.783 1.176-2.136-1.33-3.938-5.23-3.962-5.28l-.023-.054-.04-.038c-.02-.02-1.955-1.902-.34-5.272zm59.18-76.923c-.166-.158-.334-.32-.5-.483C67.734.466 67.2.166 66.64.178c-.78.018-1.303.656-1.38.756l-.457.518c-.526.373-1.917 1.305-2.46 1.438l-.08.02-.056.057c-.185.18-.37.26-.57.246-.2-.016-.41-.12-.614-.274-.476-.564-.946-1.086-1.332-1.502-.052-.067-.1-.125-.14-.168-.17-.204-.342-.378-.515-.526l-.113-.116-.014.012C57.476-.48 56.055.172 55.71.362c-.217.01-.83.076-2.166.438-2.445.397-5.433 2.156-7.218 3.208-.15.09-.293.174-.43.253-5.805 2.882-12.934 8.36-16.765 11.305-.907.698-1.626 1.25-2.086 1.583-.706.484-1.048.876-1.107 1.27-.06.397.17.686.372.94.077.096.15.188.212.288.047.073.09.142.133.206.123.19.275.424.29.512-.012.01-.04.032-.096.062l-.038.018-.03.028c-.092.086-.125.096-.124.096-.1-.016-.4-.34-.722-.686-.38-.503-.65-.72-.926-.75-.27-.03-.456.13-.605.256-.093.08-.182.154-.292.2l-.052.026C20.54 21.964 7.32 36.044 5.9 37.838c-1.18 1.406-2.565 3.702-4.115 6.824-1.415 2.806-.71 4.066-.514 4.336l.854 2.315c.054.173.138.415.254.69l.13.35c-.26.284-.94.996-1.823 1.667l-.018.014-.017.014c-1.006 1.028-.64 1.94-.252 2.907.09.223.18.453.264.694.72 2.28 1.13 2.717 1.33 2.832.457.425 1.584 1.2 3.13.373 1.126-.647 2.094-.75 2.364-.6.27.148 6.17-2.004 11.765-.553 1.173-.828 17.35-20.986 39.87-34.1.582-.336 2.652-1.23 3.047-1.365 1.302-.438 2.232-1.148 3.028-3.67 1.444-3.595 2.988-7.944 2.988-7.944s1.012-3.062 1.404-4.354c.85-1.03 2.325-2.093 1.005-3.677.1-1.15-.854-2.07-1.865-3.038zM2.072 60c.036-.023.07-.034.102-.04-.03.023-.06.043-.087.062L2.073 60zM67.45 6.53s-1.738.42-.47 1.5c0 0 .04.76-.746 1.486-.25 1.16-3.325 9.586-3.325 9.586s-.23.61.068 1.793c-.107 1.03-2.318 1.22-3.598 2.273-1.484.977-10.9 5.855-21.647 15.02-3.763 2.958-13.37 11.065-18.46 18.172 0 0-.948 1.41-2.446.94-1.446.015-9.522.466-9.522.466s-1.39.36-1.91-.485c-1.114 1.127-2.464 2.14-3.16 2.64-.127-.152-.457-.68-1.016-2.455-.09-.262-.187-.5-.28-.73-.377-.945-.608-1.518.115-2.265.81-.614 1.44-1.25 1.768-1.6.325.533.765 1.05 1.337 1.346.035.018.07.032.107.05.603.444.605.447.605.447s1.083 2.314 3.666 1.378c2.646-.725 9.888-2.792 9.888-2.792s1.074.73 4.18-3.078c2.88-3.334 15.934-18.75 30.298-25.16 2.52-1.146 4.047-1.363 5.914-5.217 1.754-2.688 5.41-10.06 5.41-10.06s1.04-2.024-.757-3.678c-.086-.093-.243-.233-.418-.38-.328-.597-.807-1.27-1.328-1.93.3-.01.58-.13.835-.36.796-.245 2.422-1.394 2.61-1.528l.026-.02.51-.574.015-.02c.004-.005.397-.522.938-.533.37-.006.75.227 1.126.69l.01.013.013.01c.172.172.346.34.517.503.823.79 1.555 1.49 1.676 2.244-.686.945-2.55 2.31-2.55 2.31zM1.804 48.75l-.02-.053-.035-.04c-.01-.01-.818-1.01.557-3.736 1.53-3.08 2.89-5.338 4.048-6.715 1.41-1.788 14.486-15.72 18.008-18.092.183-.08.313-.192.42-.283.055-.047.137-.115.165-.12.006 0 .14.013.534.533l.017.02c.736.797 1.08 1.166 1.65.66.102-.054.302-.178.362-.407.08-.298-.098-.57-.367-.986l-.127-.196c-.078-.127-.165-.236-.25-.343-.17-.213-.273-.35-.252-.486.022-.146.188-.42.864-.88.475-.344 1.195-.898 2.108-1.6 3.816-2.934 10.92-8.393 16.678-11.25l.018-.007c.138-.08.284-.168.44-.26 1.753-1.032 4.688-2.762 7.028-3.138l.03-.007C55.255.935 55.778.938 55.78.938l.094.004.077-.05c.062-.04 1.355-.85 2.7.29.196.205.398.42.603.64.05.063.104.136.163.214.308.4.707.926 1.168 1.297.663.788 1.27 1.574 1.7 2.234-.123.722-.95 1.852-3.733 4.965-.826 1.83-3.547 6.34-3.547 6.34s.143 1.73-4.052 3.36c-3.593 2.135-12.463 7.17-16.39 10.81.73.785 2.402 2.02 1.205 2.733-.647.732-.93.86-2.634-1.41-1.277 1.055-9.467 8.113-14.252 14.406-.947 1.41-1.396 2.358-4.532 3.273-1.67.487-4.59 1.202-5.93 2.047-.967.61-2.515 1.48-3.684 1.727-.103-.03-.204-.07-.305-.12-.745-.387-1.24-1.275-1.52-1.95l-.224-.605c-.048-.15-.07-.242-.072-.246l-.017.003-.79-2.15z" fill="#dedede"/></svg>