<svg viewBox="0 0 98 78" xmlns="http://www.w3.org/2000/svg" fill-rule="evenodd" clip-rule="evenodd" stroke-linejoin="round" stroke-miterlimit="1.414"><path d="M97.33 40.705c.315-1.642.535-3.3.535-5.007C97.865 15.983 75.955 0 48.935 0 21.904 0 0 15.983 0 35.698c0 1.248.09 2.478.26 3.69 4.184 38.18 47.17 37.765 47.17 37.765 44.208 1.085 50.484-32.89 50.04-36.892-.046.154-.096.294-.14.445zM47.58 10.143c-12.997.466-23.336 8.058-23.336 17.352 0 9.6 11.018 17.38 24.606 17.38 13.587 0 24.605-7.78 24.605-17.38 0-9.584-10.996-17.36-24.563-17.374h.04c16.244 0 29.415 9.313 29.415 20.795 0 11.488-13.17 20.8-29.414 20.8S19.52 42.403 19.52 30.92c0-11.166 12.445-20.277 28.06-20.777zm12.03 15.88c0 4.147-4.78 7.51-10.677 7.51-5.897 0-10.677-3.363-10.677-7.51 0-4.145 4.78-7.506 10.677-7.506 5.897 0 10.676 3.36 10.676 7.507zm-3.755-9.966c0-.62.936-1.126 2.086-1.126 1.152 0 2.086.506 2.086 1.127 0 .62-.934 1.125-2.085 1.125-1.15 0-2.085-.504-2.085-1.125zM52.103 38.91c0 .898-.95 1.626-2.128 1.626-1.173 0-2.127-.728-2.127-1.626 0-.9.954-1.627 2.127-1.627 1.178 0 2.128.728 2.128 1.627zM38.465 18.017c-.99 0-1.793-.58-1.793-1.293 0-.714.803-1.293 1.793-1.293.99 0 1.793.58 1.793 1.294 0 .713-.802 1.293-1.793 1.293zm-4.462 12.118c0 .77-.86 1.394-1.92 1.394s-1.917-.624-1.917-1.395c0-.768.857-1.39 1.918-1.39 1.06 0 1.92.622 1.92 1.39zm30.193-1.233c0-.807.897-1.46 2.003-1.46 1.103 0 2 .653 2 1.46 0 .807-.896 1.46-2 1.46-1.107 0-2.004-.654-2.004-1.46zm22.02 31.57l-1.364 1.585v1.56c-1.446 1.444-6.118 4.337-6.118 4.337s.114-1.227 0-2.003c-.555.446-2 1.11-2 1.11s.333.894 0 2.002c-2.003 1.336-6.783 3.116-6.783 3.116s.224-1.336 0-2.336c-1.22.666-2.78 1-2.78 1s.114 1.002 0 2.003c-2.668 1.334-8.12 2.114-8.12 2.114s.113-1.115 0-2.336c-2.002.667-2.556.442-2.556.442s-.114 1.112 0 2.115c-4.338.784-8.786.225-8.786.225V73.29c-1.998.112-2.447-.11-2.447-.11s-.11 1 0 2.222c-2.335.108-9.342-1.223-9.342-1.223s.114-1.335 0-2.224c-.666-.11-2.335-.558-2.335-.558s-.11 1.334 0 2.227c-2-.445-7.45-2.562-7.45-2.562V69.06l-2.11-1s-.114 1.114 0 1.895c-3.338-1.002-6.675-3.783-6.675-3.783v-1.446l-2-1.442S7.293 56.28 5.203 51.964c-.172-.352-.32-.69-.48-1.04 7.836 12.094 24.658 20.48 44.21 20.48 19.588 0 36.438-8.42 44.258-20.548-3.48 6.51-6.977 9.616-6.977 9.616z" fill="#dedede" fill-rule="nonzero"/></svg>