<svg width="1920" height="166pt" viewBox="0 0 1440 166" xmlns="http://www.w3.org/2000/svg"><path d="M6.65 0h197.66c-2.33 10.57-4.16 21.24-6.46 31.81-22.33.15-44.65.01-66.97.07-6.99 38.57-13.37 77.23-20.51 115.77-20.77 0-41.53.02-62.29-.01 6.77-38.59 13.47-77.2 20.42-115.76-22.59-.02-45.18 0-67.77-.01C2.88 21.28 4.24 10.54 6.65 0zm269.64 0h47.24c4.53 1.27 9.41 4.1 10.54 9.02 12.95 46.17 25.68 92.4 38.54 138.6-19.07.07-38.13.02-57.2.03-1.92-7.89-4.42-15.62-6.41-23.48-28.31-.13-56.61-.06-84.91-.04-5.44 7.84-10.82 15.71-16.29 23.52-15.31-.01-30.63.04-45.95-.02 33.42-46.15 66.9-92.26 100.32-138.41 3.29-4.74 8.55-7.91 14.12-9.22m.6 50.95c-10.44 14.8-21.24 29.34-31.61 44.19 18.4.04 36.8.04 55.2 0 .83 5.06 3.46 9.68 3.72 14.85.19 2.12 1.3 4 1.76 6.06.41 1.28.33 3.01 1.74 3.67.09-2.39-.69-4.84-1.9-6.88-.07-1.38.2-2.89-.56-4.12-2.36-4.97-3.43-10.41-4.78-15.7-4.02-13.98-7.62-28.06-11.67-42.03-.65-2.53-3.01-4.88-5.77-4.53-2.87-.12-4.66 2.42-6.13 4.49zM433.62 0h137.89c-1.5 10.65-4.09 21.11-5.45 31.78-29.02.22-58.05.02-87.08.1-6.52-.1-13.21 2.63-17 8.08-2.56 3.08-3.13 7.12-3.74 10.93-2.71 14.35-4.99 28.77-7.76 43.1-.64 5.01-2.41 10.58.22 15.28 3.3 4.99 9.87 5.43 15.29 5.49 28.46.04 56.91 0 85.36.02-1.74 10.99-4.02 21.9-5.81 32.89-41.84-.06-83.69.05-125.53-.06-10.67.21-21.7-6.34-24.9-16.83-3.61-10.16.69-20.6 1.84-30.78 3.91-22.31 7.72-44.64 11.69-66.94 1.2-8.47 3.99-17.07 9.73-23.59 3.97-4.63 9.48-7.68 15.25-9.47zm320.84 0h99.29C868.41 6.12 881.9 15.82 891 28.99c1.18 1.52 2.11 3.4 3.89 4.32 2.55.55 4.44-1.92 4.33-4.27-.32-6.5-2.45-12.77-2.54-19.3 4.6-2.58 11.16-2.34 14.48 2.18 8.11 9.66 10.14 23.47 20.06 31.82 1.14.62 2.48 2.75 3.86 1.45 14.67-11.83 29.3-23.81 45.25-33.92 7.48-5.27 16.43-9.12 25.77-8.29 11.89.99 21.9 8.14 31.76 14.21 3.71 2.12 6.36 5.56 9.75 8.08 2.34 1.88 5.45.74 7.47-1.05 11.17-9.29 23.33-17.39 36.15-24.22h125.31c7.24 12.98 6.64 29.17 15.94 41.15 3.61-3.03 6.22-8.19 11.5-8.39 1.99 1.95 1.62 5.1 2.45 7.6 2.63 10.26-1.3 20.47-2.28 30.65-.46 4.4.28 9.74 4.36 12.29 3.27 1.62 7.02 1.72 10.58 2.27 40.62 5.24 82.6.27 120.69-14.87 2.97-1.15 6.1-3.4 9.41-2.01 7.24 2.85 13.29 7.93 19.13 12.95 8.06 7.23 15.59 15.04 22.86 23.08 3.12 3.9 7.67 7.17 8.66 12.35.15 4.62-2.89 8.73-6.23 11.63-6.92 5.81-16.18 6.79-24.64 8.8-12.04 2.29-24.79 2.74-36.59-1-33.94-9.31-69.53-8.74-104.37-6.89-17.68.45-35.32 1.97-53.01 1.63-5.83-.17-11.81.61-17.5-.97-2.66-.72-3.64-3.76-3.29-6.23.43-7.71 3.94-15.97-.14-23.27-31.13 14.22-62.68 29.29-96.99 33.76-9.71 1.02-19.36 2.8-29.13 3.2-15.68 1.03-32.59.09-46.25-8.5-9.82-6.01-16.55-16.27-19.67-27.21-2.03-8.86 2.36-17.43 7.69-24.21 2.33-3.31 5.45-6.04 7.55-9.53 1.21-1.99.4-5.42-2.27-5.58-16.53-2.73-34.15.95-48 10.46-12.17 8.34-21.16 21.4-23.93 35.95-2.91 12.14-2.56 24.71-4.31 37.01-.54 2.89-.66 6.47-3.51 8.14-4.03 2.56-9.69 2.8-13.76.2-12.27-8.04-23.02-18.53-30.85-30.97-2.96-5.7-2.45-12.33-1.88-18.5.33-5.99-.44-12.96-5.09-17.24-9.75 9.22-23.05 12.81-35.72 15.92-11.72 2.64-23.64 5.79-33.74 12.53-2.3 1.48-2.1 4.57-1.34 6.85 2.66.61 6.01.87 7.51 3.53 2.29 4.08.17 9.69-3.81 11.87-4.75 2.25-10.13 1.38-15.15 2.28-1.57.63-2.48 2.26-3.66 3.4-7.13 1.36-14.32-.64-20.76-3.63-1.17 1.07-2.32 2.16-3.45 3.25.02 7.44.47 14.92 1.81 22.25h-37c-1.81-9.28-3.32-18.63-5.39-27.86-1.36-5.89-1.18-12.73-5.79-17.28-6.86-7.05-17.25-11.28-20.84-21.09-3.26-7.01-1.48-16.03-7.26-21.84-1.66-2.06-5.36-1.72-6.32.83-7.36 15.11-8.11 33.41-19.57 46.46-6.05 7.69-15.23 12.01-24.5 14.43-8.15 1.94-16.62 1.05-24.81-.09-5.58-.75-11.14-2.46-15.77-5.72-5.74-4.24-9.52-10.42-14.44-15.48-2.39-2.62-6-4.18-7.36-7.64-6-12.27-11.03-25.16-13.27-38.68-.28-2.91.92-5.7 1.21-8.57.98-8.09-.68-16.59 2.56-24.33 2.48 1.61 5.56 3.73 8.61 2.23 3.64-2.83 4.85-7.66 8.13-10.82 3.31-2.99 8.39-3.42 12.33-1.46 6.14 2.94 10.21 8.73 13.8 14.29 7.67 11.16 11.32 24.78 20.7 34.82 5.91-3.09 11.28-7.13 16.07-11.77 11.92-11.97 20.59-26.62 31.62-39.34 6.5-7.48 18.21-11.35 27.32-6.41 6.96 4 10.22 11.9 12.16 19.31 2.2 9.71 4.18 19.92 10.53 27.92 6.78-10.08 8.23-22.47 13.54-33.22 2.89-6.11 8.43-10.93 9.77-17.74 1.24-6.56-9.22-3.27-10.15-8.98-1.14-3.26.67-6.1 3.22-7.97m401.08 17.77c-10.58 1.7-20.48 5.96-30.03 10.67-11.07 5.11-22.06 10.7-31.56 18.43-9.4 7.39-17.26 16.67-23.23 27.02-.81 1.47-2.15 3.07-1.31 4.84 2.52 4.58 7 7.74 11.61 9.98 12.33 5.49 26.17 2.78 38.96.68 18.01-2.29 36.55-2 54-7.63 9.57-2.95 18.69-7.93 25.59-15.29 3.22-3.41 4.93-8.4 3.84-13.04-2.14-10.68-8.89-19.89-16.93-26.98-8.33-7.37-20-10.58-30.94-8.68M789.43 34.62c-3.81 2.02-3.9 6.71-4.65 10.43-3.24 18.61-10.6 36.42-11.63 55.42-.73 4.27-.31 8.59.38 12.83.63.32 1.88.95 2.51 1.27 7.17-2.76 8.92-11.46 15.37-15.13 2-1.16 4.34-1.48 6.46-2.39 2.78-1.85 4.44-5.06 7.5-6.55 8.99-3.99 18.22-7.94 25.86-14.27 3.7-3.29 8.03-6.98 8.44-12.27-.82-5.9-5.37-10.22-9.58-14-6.94-6.63-14.82-12.66-24.06-15.63-5.4-1.23-11.28-1.38-16.6.29z" fill="#111213"/></svg>