<svg viewBox="0 0 42 43" xmlns="http://www.w3.org/2000/svg"><title>Shape</title><path d="M27.937 21.116c0-1.928-.683-3.574-2.047-4.938-1.364-1.364-3.01-2.046-4.938-2.046s-3.574.682-4.938 2.046c-1.364 1.364-2.046 3.01-2.046 4.938s.682 3.574 2.046 4.938c1.364 1.364 3.01 2.047 4.938 2.047s3.574-.682 4.938-2.046c1.364-1.364 2.047-3.01 2.047-4.938zm3.764 0c0 2.983-1.044 5.52-3.136 7.612-2.092 2.092-4.63 3.137-7.612 3.137s-5.52-1.045-7.61-3.137c-2.093-2.092-3.14-4.63-3.14-7.612s1.047-5.52 3.14-7.61c2.09-2.093 4.628-3.14 7.61-3.14 2.983 0 5.52 1.047 7.612 3.14 2.092 2.09 3.137 4.628 3.137 7.61zM34.65 9.93c0 .692-.246 1.283-.737 1.774-.49.49-1.08.737-1.772.737-.69 0-1.282-.245-1.773-.736-.49-.49-.737-1.082-.737-1.773 0-.69.246-1.28.737-1.772.49-.49 1.082-.737 1.773-.737.69 0 1.282.247 1.773.738.492.49.738 1.082.738 1.773zm-13.696-6l-2.087-.015c-1.264-.01-2.223-.01-2.878 0-.655.01-1.532.037-2.633.082-1.1.046-2.037.137-2.81.273-.773.136-1.423.305-1.95.505-.91.363-1.71.89-2.4 1.582-.692.69-1.22 1.49-1.583 2.4-.2.528-.368 1.178-.504 1.95-.137.774-.227 1.71-.273 2.81-.045 1.102-.073 1.98-.082 2.634-.008.656-.008 1.615 0 2.88l.015 2.086-.014 2.087c-.008 1.265-.008 2.224 0 2.88.01.653.038 1.53.083 2.63.046 1.102.136 2.038.273 2.81.136.774.305 1.425.505 1.952.364.91.892 1.71 1.583 2.4.69.692 1.49 1.22 2.4 1.583.528.2 1.178.368 1.95.505.774.136 1.71.227 2.81.273 1.102.045 1.98.072 2.634.082.655.01 1.614.01 2.878 0s1.96-.014 2.087-.014c.128 0 .823.004 2.087.014 1.263.01 2.223.01 2.878 0 .654-.01 1.532-.037 2.632-.082 1.1-.046 2.037-.137 2.81-.273.773-.137 1.424-.305 1.95-.505.91-.364 1.71-.89 2.402-1.582.69-.69 1.218-1.492 1.582-2.4.2-.528.368-1.18.505-1.952.135-.773.226-1.71.272-2.81.045-1.1.072-1.978.082-2.632.01-.655.01-1.614 0-2.88-.01-1.263-.014-1.958-.014-2.086 0-.127.004-.823.014-2.087.01-1.265.01-2.224 0-2.88-.01-.654-.037-1.53-.082-2.632-.046-1.1-.137-2.037-.273-2.81-.138-.773-.306-1.423-.506-1.95-.364-.91-.89-1.71-1.582-2.4-.69-.692-1.492-1.22-2.4-1.583-.528-.2-1.18-.37-1.952-.505-.773-.136-1.71-.227-2.81-.273-1.1-.045-1.978-.073-2.632-.082-.655-.01-1.615-.01-2.88 0-1.263.01-1.958.014-2.086.014zm20.953 17.186c0 4.165-.046 7.048-.137 8.65-.182 3.782-1.31 6.71-3.383 8.783-2.073 2.073-5 3.2-8.784 3.382-1.6.09-4.483.137-8.648.137s-7.047-.047-8.648-.138c-3.783-.182-6.71-1.31-8.785-3.383C1.445 36.475.317 33.547.135 29.764.046 28.165 0 25.28 0 21.115c0-4.164.045-7.046.136-8.647.182-3.783 1.31-6.71 3.383-8.785C5.592 1.61 8.52.483 12.303.3c1.6-.09 4.483-.136 8.648-.136S28 .21 29.602.3c3.782.182 6.71 1.31 8.783 3.383 2.074 2.074 3.2 5.002 3.383 8.785.09 1.6.137 4.483.137 8.648z" fill-rule="nonzero" fill="#FFF"/></svg>