<svg viewBox="0 0 186 53" xmlns="http://www.w3.org/2000/svg" fill-rule="evenodd" clip-rule="evenodd" stroke-linejoin="round" stroke-miterlimit="1.414"><path d="M9.526.181C5.738 1.768 1.573 6.241.258 11.867c-1.668 7.124 5.267 10.13 5.834 9.149.666-1.164-1.247-1.553-1.638-5.248-.502-4.776 1.712-10.112 4.507-12.452.521-.428.496.176.496 1.289 0 2.008-.112 19.972-.112 23.723 0 5.079-.208 6.676-.592 8.256-.377 1.604-.988 2.687-.528 3.109.521.466 2.736-.642 4.02-2.436 1.536-2.145 2.077-4.725 2.177-7.525.114-3.373.107-8.735.114-11.787 0-2.806.044-11.012-.044-15.952C14.466.785 11.106-.479 9.526.181zM184.17 26.837c-.542 0-.799.566-1.007 1.516-.717 3.316-1.472 4.066-2.448 4.066-1.088 0-2.064-1.643-2.321-4.927-.195-2.58-.164-7.337.088-12.069.051-.97-.215-1.932-2.82-2.883-1.125-.403-2.756-1.007-3.567.957-2.297 5.531-3.19 9.936-3.405 11.716-.269-1.534-.572-4.134-.609-9.596-.014-1.057-.234-1.969-1.416-2.712-.762-.478-3.078-1.334-3.915-.321-.717.831-1.553 3.059-2.428 5.701-.705 2.152-1.196 3.612-1.196 3.612s.005-5.801.019-8.004c0-.83-.567-1.108-.736-1.157-.775-.227-2.304-.599-2.946-.599-.798 0-.988.447-.988 1.095 0 .083-.132 7.633-.132 12.913v.742c-.434 2.429-1.868 5.726-3.422 5.726-1.555 0-2.291-1.377-2.291-7.67 0-3.668.113-5.267.164-7.923.031-1.528.093-2.705.088-2.976-.013-.812-1.429-1.227-2.084-1.377a6.288 6.288 0 0 0-1.685-.19c-.63.038-1.076.454-1.076 1.032v.882c-.812-1.284-2.128-2.178-3.008-2.436-2.354-.699-4.815-.075-6.671 2.517-1.472 2.064-2.36 4.399-2.705 7.752-.259 2.455-.176 4.94.282 7.041-.553 2.374-1.573 3.348-2.686 3.348-1.624 0-2.794-2.642-2.662-7.217.095-3.008.692-5.116 1.352-8.175.284-1.301.051-1.981-.521-2.642-.523-.591-1.643-.9-3.247-.528-1.14.27-2.781.56-4.273.78 0 0 .088-.359.164-.995.384-3.328-3.235-3.057-4.387-1.995-.692.636-1.164 1.386-1.34 2.732-.282 2.139 1.46 3.146 1.46 3.146-.572 2.618-1.969 6.041-3.422 8.514-.775 1.327-1.367 2.303-2.134 3.347-.006-.383-.006-.773-.006-1.157-.014-5.506.056-9.842.088-11.403.032-1.528.094-2.673.094-2.944-.013-.592-.358-.824-1.089-1.101a7.793 7.793 0 0 0-2.189-.498c-.988-.076-1.592.454-1.574 1.076v.838c-.817-1.284-2.133-2.178-3.001-2.436-2.36-.699-4.82-.075-6.676 2.517-1.467 2.064-2.436 4.952-2.713 7.721-.251 2.592-.207 4.783.145 6.632-.377 1.851-1.453 3.788-2.673 3.788-1.555 0-2.443-1.377-2.443-7.67 0-3.668.113-5.267.171-7.923.03-1.528.088-2.705.081-2.976-.007-.812-1.421-1.227-2.083-1.377-.685-.164-1.284-.215-1.737-.19-.604.051-1.025.586-1.025.995v.919c-.818-1.284-2.134-2.178-3.008-2.436-2.354-.699-4.795-.063-6.664 2.517-1.22 1.68-2.208 3.549-2.718 7.689a27.828 27.828 0 0 0-.201 3.36c-.485 2.971-2.631 6.394-4.38 6.394-1.032 0-2.013-1.988-2.013-6.236 0-5.651.352-13.706.414-14.486l2.65-.044c1.101-.005 2.108.019 3.574-.056.743-.038 1.454-2.686.686-3.021-.34-.144-2.782-.276-3.751-.295-.817-.02-3.077-.189-3.077-.189s.202-5.343.246-5.903c.038-.477-.566-.717-.918-.861-.851-.365-1.612-.535-2.506-.717-1.252-.259-1.812-.007-1.918 1.044-.164 1.592-.252 6.261-.252 6.261-.919 0-4.034-.183-4.947-.183-.848 0-1.768 3.65-.591 3.694 1.354.05 3.7.101 5.26.145 0 0-.069 8.187-.069 10.709v.782c-.861 4.473-3.876 6.889-3.876 6.889.648-2.964-.673-5.184-3.064-7.06-.881-.699-2.617-2.013-4.562-3.441 0 0 1.126-1.115 2.126-3.342.705-1.58.737-3.398-1-3.794-2.869-.662-5.229 1.446-5.94 3.7-.541 1.736-.257 3.033.818 4.373l.245.301a112.563 112.563 0 0 1-2.284 4.23c-2.095 3.617-3.675 6.474-4.864 6.474-.956 0-.944-2.901-.944-5.618 0-2.342.176-5.872.315-9.522.044-1.201-.56-1.893-1.572-2.517-.618-.377-1.927-1.12-2.688-1.12-1.132 0-4.418.152-7.519 9.119-.391 1.132-1.159 3.189-1.159 3.189l.07-10.785c0-.251-.132-.491-.44-.66-.523-.283-1.926-.863-3.159-.863-.599 0-.895.277-.895.824l-.1 16.865c0 1.283.031 2.782.158 3.435.125.655.333 1.189.585 1.511.252.308.547.548 1.025.654.447.095 2.907.403 3.034-.534.157-1.127.162-2.342 1.453-6.891 2.013-7.073 4.632-10.521 5.865-11.748.22-.215.466-.227.452.125-.056 1.555-.238 5.424-.364 8.716-.333 8.815 1.264 10.446 3.562 10.446 1.749 0 4.216-1.744 6.865-6.148 1.655-2.75 3.253-5.438 4.411-7.382.793.743 1.698 1.542 2.598 2.398 2.096 1.982 2.781 3.87 2.323 5.657-.347 1.372-1.661 2.781-3.996 1.409-.68-.396-.969-.704-1.655-1.157-.365-.245-.932-.315-1.265-.063-.881.66-1.379 1.498-1.668 2.535-.271 1.013.743 1.543 1.793 2.008.9.409 2.839.768 4.078.812 4.826.163 8.69-2.329 11.377-8.747.485 5.544 2.529 8.683 6.085 8.683 2.384 0 4.769-3.076 5.815-6.103.294 1.234.741 2.303 1.314 3.215 2.744 4.343 8.067 3.411 10.735-.276.831-1.145.957-1.555.957-1.555.39 3.48 3.196 4.707 4.802 4.707 1.805 0 3.656-.856 4.957-3.788.157.321.321.623.511.912 2.737 4.343 8.06 3.411 10.734-.276.12-.183.234-.333.327-.479l.083 2.291s-1.53 1.397-2.467 2.259c-4.121 3.781-7.256 6.652-7.488 9.986-.289 4.26 3.159 5.839 5.776 6.047 2.769.22 5.148-1.308 6.607-3.461 1.284-1.887 2.128-5.946 2.065-9.96-.025-1.611-.064-3.651-.101-5.847a45.27 45.27 0 0 0 4.588-6.292c1.641-2.705 3.39-6.349 4.284-9.187 0 0 1.529.012 3.153-.088.523-.032.673.075.572.452-.113.46-2.051 7.942-.283 12.926 1.215 3.41 3.939 4.512 5.563 4.512 1.893 0 3.707-1.435 4.675-3.562.12.232.24.466.378.679 2.738 4.343 8.042 3.404 10.735-.276.611-.837.951-1.555.951-1.555.578 3.606 3.385 4.719 4.989 4.719 1.68 0 3.265-.685 4.556-3.731.051 1.34.132 2.435.271 2.782.081.213.56.478.9.61 1.534.566 3.096.295 3.668.176.402-.082.717-.397.756-1.226.112-2.178.042-5.834.704-8.559 1.113-4.556 2.145-6.324 2.636-7.199.272-.49.585-.572.592-.056.018 1.051.076 4.134.509 8.287.309 3.045.731 4.852 1.057 5.424.919 1.631 2.064 1.705 2.99 1.705.592 0 1.825-.164 1.717-1.201-.056-.504.039-3.631 1.127-8.124.717-2.939 1.906-5.588 2.334-6.557.139 1.996-.062 8.609.755 12.221 1.121 4.901 4.348 5.448 5.475 5.448 2.397 0 4.367-1.824 5.027-6.632.164-1.157-.076-2.051-.786-2.051zm-100.612-2.97c-.132 2.542-.629 4.669-1.421 6.21-1.448 2.8-4.298 3.682-5.551-.352-.912-2.913-.604-6.89-.22-9.036.553-3.184 1.957-5.437 4.147-5.229 2.24.22 3.334 3.108 3.045 8.407zm21.955.037c-.126 2.399-.748 4.815-1.428 6.173-1.403 2.82-4.336 3.7-5.551-.352-.829-2.774-.635-6.356-.22-8.608.536-2.932 1.825-5.657 4.148-5.657 2.259 0 3.372 2.479 3.051 8.444zm.573 16.387c-.032 4.385-.717 8.224-2.191 9.344-2.101 1.585-4.926.39-4.341-2.807.516-2.831 2.964-5.72 6.539-9.249 0 0 .012.805-.007 2.712zm37.907-16.362c-.127 2.638-.712 4.695-1.435 6.148-1.404 2.82-4.311 3.694-5.551-.352-.673-2.209-.705-5.896-.22-8.973.491-3.133 1.87-5.5 4.147-5.292 2.252.215 3.304 3.108 3.059 8.469z"/></svg>