<svg viewBox="0 0 300 300" xmlns="http://www.w3.org/2000/svg"><path d="M150 0c40.738 0 45.846.173 61.845.903 15.966.728 26.87 3.264 36.41 6.972 9.865 3.833 18.23 8.962 26.57 17.3 8.338 8.34 13.467 16.705 17.3 26.57 3.708 9.54 6.244 20.444 6.972 36.41.73 16 .903 21.107.903 61.845s-.173 45.846-.903 61.845c-.728 15.966-3.264 26.87-6.972 36.41-3.833 9.865-8.962 18.23-17.3 26.57-8.34 8.338-16.705 13.467-26.57 17.3-9.54 3.708-20.444 6.244-36.41 6.972-16 .73-21.107.903-61.845.903s-45.846-.173-61.845-.903c-15.966-.728-26.87-3.264-36.41-6.972-9.865-3.833-18.23-8.962-26.57-17.3-8.338-8.34-13.467-16.705-17.3-26.57-3.708-9.54-6.244-20.444-6.972-36.41C.173 195.845 0 190.738 0 150s.173-45.846.903-61.845c.728-15.966 3.264-26.87 6.972-36.41 3.833-9.865 8.962-18.23 17.3-26.57 8.34-8.338 16.705-13.467 26.57-17.3 9.54-3.708 20.444-6.244 36.41-6.972C104.155.173 109.262 0 150 0zm60.613 27.902c-15.817-.722-20.561-.875-60.613-.875s-44.796.153-60.613.875c-14.625.667-22.567 3.11-27.853 5.164-7.001 2.721-11.998 5.972-17.247 11.221-5.25 5.249-8.5 10.246-11.22 17.247-2.055 5.286-4.498 13.228-5.165 27.853-.722 15.817-.875 20.561-.875 60.613s.153 44.796.875 60.613c.667 14.625 3.11 22.567 5.164 27.853 2.721 7.001 5.973 11.998 11.221 17.247 5.249 5.25 10.246 8.5 17.247 11.22 5.286 2.055 13.228 4.498 27.853 5.165 15.815.722 20.558.875 60.613.875s44.798-.153 60.613-.875c14.625-.667 22.567-3.11 27.853-5.164 7.001-2.721 11.998-5.972 17.247-11.221 5.25-5.249 8.5-10.246 11.22-17.247 2.055-5.286 4.498-13.228 5.165-27.853.722-15.817.875-20.561.875-60.613s-.153-44.796-.875-60.613c-.667-14.625-3.11-22.567-5.164-27.853-2.721-7.001-5.972-11.998-11.221-17.247-5.249-5.25-10.246-8.5-17.247-11.22-5.286-2.055-13.228-4.498-27.853-5.165zM72.88 150.212c0-42.709 34.622-77.33 77.331-77.33s77.33 34.621 77.33 77.33c0 42.709-34.621 77.33-77.33 77.33-42.709 0-77.33-34.621-77.33-77.33zm77.331 50.197c27.723 0 50.197-22.474 50.197-50.197 0-27.723-22.474-50.197-50.197-50.197-27.723 0-50.197 22.474-50.197 50.197 0 27.723 22.474 50.197 50.197 50.197zm80.72-111.85c-10.062 0-18.22-8.157-18.22-18.22 0-10.063 8.158-18.22 18.22-18.22 10.063 0 18.22 8.157 18.22 18.22 0 10.063-8.157 18.22-18.22 18.22z"/></svg>