<?xml version="1.0" encoding="UTF-8" standalone="no"?><!DOCTYPE svg PUBLIC "-//W3C//DTD SVG 1.1//EN" "http://www.w3.org/Graphics/SVG/1.1/DTD/svg11.dtd"><svg width="100%" height="100%" viewBox="0 0 1544 396" version="1.1" xmlns="http://www.w3.org/2000/svg" xmlns:xlink="http://www.w3.org/1999/xlink" xml:space="preserve" style="fill-rule:evenodd;clip-rule:evenodd;stroke-linejoin:round;stroke-miterlimit:1.41421;"><path id="_.23.000000ff" d="M367.902,0.496c3.71,-1.49 7.64,0.63 10.47,2.99c4.8,4.2 8.99,9.64 15.38,11.46c9.39,3 19.27,4.56 28.22,8.87c5.96,2.46 10.94,6.88 17.18,8.7c5.38,1.68 9.52,5.79 14.87,7.47c4.03,1.5 8.42,2.51 11.79,5.35c11.52,10.95 17.46,26 25.17,39.57c8.11,14.75 1.3,36.18 -14.65,42.39c-10.35,3.39 -21.65,2.29 -31.89,-0.91c-13.63,-4.29 -25.94,-11.7 -38.44,-18.44c-4.28,-2.22 -8.85,-3.81 -13.36,-5.48c-12.46,-4.39 -25.14,-8.38 -38.21,-10.51c-30.24,-5.59 -59.78,-16.99 -90.94,-15.9c-6.47,-0.39 -12.97,2.37 -17.4,7.05c-1.54,1.39 -2.01,4.25 0.13,5.34c20.67,12.95 43.56,21.79 66.5,29.8c28.47,9.7 57.16,19.53 83.38,34.5c18.76,10.83 38.53,20.09 55.91,33.15c3.11,2.23 6.4,4.55 10.27,5.19c3.36,0.61 5.57,-2.71 6.11,-5.6c2.41,-11.56 -0.48,-23.92 4.11,-35.09c3.01,2.01 6.94,4.84 10.57,2.57c4.81,-3.42 6.11,-9.81 10.52,-13.64c4.32,-3.82 11,-3.67 15.85,-0.93c6.7,3.76 11.43,10.11 15.49,16.47c9.83,13.99 14.28,31.36 26.32,43.86c14.43,-7.39 25.56,-19.65 35.28,-32.36c7.86,-10.15 15.09,-20.81 23.55,-30.49c5.5,-6.57 13.82,-10.75 22.39,-11.07c5.96,-0.21 12.1,1.8 16.31,6.13c7.02,6.6 9.49,16.33 11.65,25.38c2.44,10.36 4.87,21.31 12.09,29.53c10.16,-14.68 10.65,-33.82 21.23,-48.26c3.47,-5.04 7.49,-10.22 8.03,-16.53c-0.13,-4.05 -5.15,-4.05 -8.02,-5.13c-5.76,-0.86 -7.16,-9.77 -2.28,-12.65c4.84,-4.53 13.04,0.92 17.28,-4.64c2.84,-3.04 3.82,-8.71 8.71,-9.06c23.13,-4.83 47.22,-2.94 70.01,2.75c15.17,3.98 30.21,9.14 43.74,17.19c13.83,8.16 25.8,19.53 34.34,33.15c2.38,0.64 5.96,0.5 6.62,-2.46c1.35,-7.78 -2.13,-15.29 -2.68,-22.97c-0.05,-1.36 -0.14,-2.96 1.04,-3.92c4.41,-2.19 10.24,-2.29 14.19,0.95c5.89,4.86 8.75,12.18 12.13,18.8c4.61,9.58 9.52,19.99 19.05,25.62c18.63,-14.83 37.02,-30.11 57.22,-42.82c4.36,-2.69 8.63,-5.64 13.45,-7.47c9.78,-3.87 20.99,-3.8 30.82,-0.15c7.61,3.05 14.71,7.24 21.7,11.51c4.58,2.98 9.48,5.67 13.22,9.75c2.22,2.32 4.86,4.88 8.31,4.81c3.82,-0.42 6.39,-3.56 9.31,-5.7c30.33,-23.95 66,-42.42 104.59,-47.86c24.9,-3.67 50.71,-1.47 74.48,6.87c6.67,2.45 12.45,7.13 16.27,13.11c10.03,15.63 8.53,36.13 20.06,51c0.76,1.44 2.19,-0.02 2.86,-0.73c3.24,-3.41 6.21,-7.93 11.31,-8.53c3.42,0.26 1.91,4.66 2.95,6.94c3.22,9.1 1.56,18.89 -0.24,28.1c-1.11,7.02 -3.06,14.33 -1.04,21.37c1.29,4.56 5.76,7.42 10.29,7.99c44.22,6.39 89.91,3.92 132.8,-8.91c10.94,-3.2 21.59,-7.27 32.13,-11.59c6.71,0.19 12.3,4.73 17.68,8.32c16.95,12.86 31.31,28.71 45.39,44.57c2.79,2.8 4.34,6.89 3.41,10.83c-1.29,5.66 -5.65,10.05 -10.34,13.16c-6.9,4.32 -15.06,5.84 -22.88,7.6c-16.17,3.53 -33.35,4.61 -49.39,-0.1c-19.39,-5.34 -39.4,-8.15 -59.45,-9.36c-51.41,-3.06 -102.76,4.58 -154.2,2.34c-3.27,0.01 -7.11,-1.56 -7.69,-5.15c-1.06,-10.71 5.6,-22.24 -0.6,-32.28c-20.28,9.4 -40.63,18.73 -61.59,26.55c-17.47,6.62 -35.54,11.84 -54.06,14.52c-14.27,2.03 -28.56,4.15 -42.97,4.88c-16.29,0.83 -33.24,-0.11 -48.33,-6.88c-11.22,-5.04 -20.53,-14 -26.15,-24.93c-3.52,-6.85 -6.85,-14.53 -5.29,-22.39c1.74,-9.96 8.18,-18.2 14.54,-25.74c2.05,-2.63 5.29,-5 5.07,-8.72c0.35,-2.17 -1.25,-4.41 -3.48,-4.53c-16.46,-2.48 -33.68,-0.15 -48.78,6.9c-15.3,7.1 -28.08,19.56 -35.33,34.8c-9.98,21.32 -7.24,45.53 -11.8,68.08c-2.15,5.11 -8.6,6.4 -13.58,6.02c-4.36,-0.06 -7.82,-2.92 -11.2,-5.29c-13.21,-9.31 -24.6,-21.21 -33.32,-34.82c-4.61,-8.08 -2.46,-17.64 -2.52,-26.43c0.23,-6.59 -1.53,-13.49 -6.16,-18.37c-12.15,11.54 -28.76,16.23 -44.66,19.94c-14.76,3.59 -30.01,7.26 -42.61,16.14c-1.94,2.06 -2.13,5.69 -0.69,8.11c2.64,1.15 6.03,0.8 8.05,3.2c4.76,4.95 1.24,13.75 -4.63,16.12c-5.74,2.26 -12.07,1.36 -18.06,2.3c-1.85,1.07 -2.88,3.09 -4.63,4.27c-8.64,1.92 -17.42,-0.86 -25.19,-4.54c-1.86,1.63 -4.69,3.06 -4.71,5.88c0.08,15.97 3.35,31.66 5.51,47.43c1.68,13.15 2.7,26.79 -0.84,39.73c-3.61,9.97 -9.56,19.74 -18.74,25.43c-3.71,2.5 -8.96,2.06 -12.18,-1.03c-2.07,-2.01 -4.81,-4.42 -4.21,-7.63c0.84,-4.45 4.89,-8.64 2.86,-13.36c-12.05,-36.6 -16.96,-74.96 -25.01,-112.52c-0.83,-4.14 -3.71,-7.45 -6.69,-10.26c-8.12,-7.25 -19.08,-12.4 -23.42,-23c-4.03,-8.74 -2.22,-19.58 -8.6,-27.3c-1.75,-2.66 -6.39,-3.4 -8.33,-0.65c-8.22,16.04 -9.86,34.66 -18.96,50.32c-5.36,8.91 -12.95,16.89 -22.61,21.07c-5.1,2.24 -10.36,4.15 -15.77,5.5c-8.59,1.24 -17.36,0.76 -25.95,-0.28c-8.33,-1.18 -16.98,-3.25 -23.62,-8.7c-8.18,-6.49 -12.94,-16.34 -21.47,-22.44c-3.12,-2.27 -7.58,-4.26 -11.1,-1.63c-6.63,4.65 -8.86,13.85 -16.51,17.34c-19.27,9.46 -41.32,8.29 -62.19,8.42c-56.94,1.71 -113.94,-4.07 -170.82,0.56c-26.4,4.28 -52.76,9.33 -79.48,11.26c-14.38,1.43 -29.53,3.97 -43.4,-1.49c-7.27,-2.62 -12.8,-8.15 -18.7,-12.87c-2.92,-1.41 -5.05,-4.01 -7.96,-5.39c-9.31,-1.49 -19.34,-0.6 -27.97,-5.04c-12.31,-6.72 -19.71,-19.25 -30.65,-27.69c-2.71,-2.29 -5.98,-3.79 -8.73,-6.02c-4.4,-4.17 -6.42,-10.13 -7.91,-15.86c-2.09,-7.81 -1.48,-15.99 -2.49,-23.95c-0.48,-4.2 -0.69,-8.83 1.55,-12.59c1.31,-2.4 4.56,-2.77 6.82,-1.59c9.07,4.06 15.41,12.01 23.22,17.86c2.37,1.92 5.37,2.62 8.33,2.96c70.87,10.87 142.67,13.69 214.24,15.05c29.58,0.33 59.17,1.12 88.73,-0.36c3.22,-0.44 7.43,-1.03 8.72,-4.54c-0.57,-3.34 -0.18,-7.71 -3.37,-9.82c-24.3,-18.9 -51.79,-33.11 -79.38,-46.52c-16.03,-8.22 -32.78,-14.93 -49.42,-21.79c-11.86,-5.16 -22.97,-11.85 -34.66,-17.38c-4.91,-2.7 -11.53,-4.36 -13.37,-10.37c-1.97,-12.11 -1.45,-25.7 5.96,-36c6.06,-8.56 16.38,-12.33 25.99,-15.34c12.47,-3.93 25.66,-2.84 38.54,-3.52c37.6,-1.11 75.38,-2.47 112.44,-9.46c2.29,-0.75 5.71,-0.11 6.91,-2.66c-0.62,-4.4 -4.66,-8.66 -2.41,-13.19c2.24,-4.25 4.42,-9.07 8.75,-11.57m820.15,123.6c-12.29,2.19 -23.8,7.28 -34.93,12.75c-11.19,5.21 -22.34,10.65 -32.42,17.82c-15.55,10.7 -28.58,25.11 -37.34,41.84c-0.35,4.56 3.94,7.98 7.16,10.65c9.5,7.45 22.15,9.42 33.91,8.4c14.48,-1.14 28.71,-4.66 43.26,-5.07c13.47,-0.97 27,-2.26 40.11,-5.67c14.43,-3.65 28.53,-10.51 38.48,-21.83c3.63,-3.91 4.79,-9.62 3.91,-14.78c-1.15,-7.46 -4.75,-14.3 -9,-20.43c-6.1,-8.52 -13.74,-16.34 -23.41,-20.7c-9.25,-4.25 -19.82,-4.9 -29.73,-2.98m-450.23,19.83c-4.64,0.97 -6.46,6.05 -7.04,10.22c-4.33,28.47 -17.21,55.78 -15.04,85.07c-0.6,3.29 3.54,5.26 6.05,3.45c7.01,-4.04 9.4,-12.67 16.05,-17.11c2.37,-1.79 5.39,-2.11 8.13,-3.04c2.92,-1.59 4.83,-4.43 7.21,-6.67c2.21,-1.95 5.1,-2.81 7.72,-4.04c10.45,-4.72 21.08,-9.68 29.55,-17.57c3.66,-3.57 7.87,-7.54 8.05,-13.02c-0.24,-5.62 -3.98,-10.3 -7.8,-14.1c-8.27,-7.9 -17,-15.67 -27.45,-20.55c-7.84,-3.79 -16.99,-4.93 -25.43,-2.64Z" style="fill:#f1f1f1;fill-rule:nonzero;"/></svg>