<svg viewBox="0 0 83 83" xmlns="http://www.w3.org/2000/svg" fill-rule="evenodd" clip-rule="evenodd" stroke-linecap="round" stroke-linejoin="round" stroke-miterlimit="10"><path d="M60.647 13.372l5.53-5.533 8.304 8.3-5.533 5.535-.002-.002-22.48 22.48-4.12 4.12 9.503-9.502 27.315 27.48-7.702 14.91-6.317-1.237-1.19-6.32-6.32-1.23-1.188-6.32-6.32-1.238-1.187-6.316-6.317-1.235-1.19-6.316-1.462-.3-15.98 15.984-.102.096-1.976 1.98L1.16 81.16l12.45-20.753 2.073-2.076.002.003c-1.146 1.145-1.146 3.004 0 4.15.573.574 1.325.86 2.076.86-.75 0-1.5-.287-2.074-.86-1.146-1.147-1.146-3.006 0-4.15-.002-.002 44.96-44.962 44.96-44.962v.002zm-40.844 49.14c-1.113 1.148-1.103 2.988.03 4.122.27.268.576.474.905.616-.328-.142-.636-.348-.904-.616-1.143-1.144-1.143-3.007 0-4.152l-.027.027-.004.003zm7.89-20.436l3.55.696 12.33-12.33-6.324-6.36L23.29 32.7l3.127 3.146 1.274 6.232zm11.17-22.032L20.094 1.16l-.213.216-2.616 2.613 3.54 3.558L9.51 18.838 5.973 15.28l-2.82 2.82 14.775 14.863c1.03 1.036 2.896 1.257 4.146.487l16.393-10.12c1.252-.77 1.428-2.25.396-3.286zm-5.895 1.564L21.003 28.56c-.636.374-1.577.25-2.09-.27l-6.85-6.888 11.29-11.293 9.83 9.88c.516.52.42 1.247-.215 1.618zm41.513-5.472l-8.3-8.3 5.533-5.533h-.003c1.528-1.526 4.01-1.526 5.537 0l2.764 2.77c1.526 1.528 1.526 4.006 0 5.533h.005l-5.534 5.53z" fill="none" stroke="#000" stroke-width="2.32"/></svg>