<svg viewBox="0 0 772 264" xmlns="http://www.w3.org/2000/svg" fill-rule="evenodd" clip-rule="evenodd" stroke-linejoin="round" stroke-miterlimit="1.414"><path d="M0 0h772v264H0V0zm181 198h5v64h-5v-64zm197 0h4v64h-4v-64zm196 0h4v64h-4v-64zM10 230h4v32h-4v-32zm49 0h4v32h-4v-32zm49 0h4v32h-4v-32zm-73-8h4v40h-4v-40zm48-10h4v50h-4v-50zm49 10h4v40h-4v-40zm98 0h4v41h-4v-41zm49-10h4v50h-4v-50zm-123 18h4v32h-4v-32zm50 0h4v32h-4v-32zm49 0h4v32h-4v-32zm73-8h4v40h-4v-40zm-24 8h4v32h-4v-32zm49 0h4v32h-4v-32zm75-8h4v40h-4v-40zm-25 8h4v32h-4v-32zm49 0h4v32h-4v-32zm72-8h4v40h-4v-40zm-24 8h4v32h-4v-32zm50 0h4v32h-4v-32zm73-8h4v40h-4v-40zm-24 8h4v32h-4v-32zm48 0h4v32h-4v-32zm-171-18h4v50h-4v-50zm196 0h4v50h-4v-50zm49 10h4v40h-4v-40zm-24 8h4v32h-4v-32zm48 0h4v32h-4v-32zM7 3h3v37H7V3zm8 0h3v37h-3V3zm8 0h3v37h-3V3zm8 0h3v37h-3V3zm8 0h3v74h-3V3zm6 0h3v37h-3V3zm8 0h3v37h-3V3zm8 0h3v37h-3V3zm8 0h3v37h-3V3zm15 0h4v37h-4V3zm8 0h4v37h-4V3zm8 0h4v37h-4V3zm8 0h4v37h-4V3zm16 0h3v37h-3V3zm8 0h3v37h-3V3zm8 0h3v37h-3V3zm8 0h3v37h-3V3zm14 0h3v37h-3V3zm8 0h3v37h-3V3zm8 0h3v37h-3V3zm8 0h3v37h-3V3zm14 0h4v37h-4V3zm8 0h4v37h-4V3zm8 0h4v37h-4V3zm8 0h4v37h-4V3zm15 0h3v37h-3V3zm8 0h3v37h-3V3zm8 0h3v37h-3V3zm8 0h3v37h-3V3zm15 0h3v37h-3V3zm8 0h3v37h-3V3zm8 0h3v37h-3V3zm8 0h3v37h-3V3zm14 0h3v37h-3V3zm8 0h3v37h-3V3zm8 0h3v37h-3V3zm8 0h3v37h-3V3zm14 0h4v37h-4V3zm8 0h4v37h-4V3zm8 0h4v37h-4V3zm9 0h3v37h-3V3zm15 0h3v37h-3V3zm8 0h3v37h-3V3zm8 0h3v37h-3V3zm8 0h3v37h-3V3zm14 0h3v37h-3V3zm8 0h3v37h-3V3zm8 0h3v37h-3V3zm8 0h3v37h-3V3zm14 0h4v37h-4V3zm8 0h4v37h-4V3zm8 0h4v37h-4V3zm8 0h4v37h-4V3zm15 0h4v37h-4V3zm8 0h4v37h-4V3zm8 0h4v37h-4V3zm8 0h4v37h-4V3zm15 0h3v37h-3V3zm8 0h3v37h-3V3zm8 0h3v37h-3V3zm8 0h3v37h-3V3zm14 0h3v37h-3V3zm8 0h3v37h-3V3zm8 0h3v37h-3V3zm8 0h4v37h-4V3zm15 0h4v37h-4V3zm8 0h4v37h-4V3zm8 0h4v37h-4V3zm8 0h4v37h-4V3zm15 0h3v37h-3V3zm8 0h3v37h-3V3zm8 0h3v37h-3V3zm8 0h3v37h-3V3zm52 0h4v37h-4V3zm8 0h4v37h-4V3zm8 0h4v37h-4V3zm8 0h4v37h-4V3zm-62 0h3v37h-3V3zm8 0h3v37h-3V3zm8 0h3v37h-3V3zm8 0h4v37h-4V3zM116 3h3v74h-3V3zM77 3h4v52h-4V3zm77 0h3v52h-3V3zm77 0h4v52h-4V3zm39 0h3v74h-3V3zm-77 0h3v74h-3V3zm309 0h3v74h-3V3zm-77 0h3v74h-3V3zm-78 0h4v74h-4V3zm-38 0h3v52h-3V3zm77 0h3v52h-3V3zm78 1h3v52h-3V4zm77-1h3v52h-3V3zm77 0h3v52h-3V3zm77 2h3v52h-3V5zM579 3h3v74h-3V3zm77 2h3v74h-3V5zm77-2h3v74h-3V3z" fill="#fff"/></svg>