<?xml version="1.0" encoding="UTF-8"?>
<svg width="739px" height="65px" viewBox="0 0 739 65" version="1.1" xmlns="http://www.w3.org/2000/svg" xmlns:xlink="http://www.w3.org/1999/xlink">
    <title>ruler-wide</title>
    <g id="Зђае-Graphics" stroke="none" stroke-width="1" fill="none" fill-rule="evenodd">
        <g id="Ruler-Wide" transform="translate(-23.000000, -1.000000)" fill="#FFFFFF">
            <g id="ruler-wide" transform="translate(392.500000, 33.500000) rotate(-180.000000) translate(-392.500000, -33.500000) translate(23.000000, 1.000000)">
                <path d="M171,9.09494702e-13 L176,9.09494702e-13 L176,64 L171,64 L171,9.09494702e-13 Z M368,9.09494702e-13 L372,9.09494702e-13 L372,64 L368,64 L368,9.09494702e-13 Z M564,0 L568,0 L568,64 L564,64 L564,0 Z M0,32 L4,32 L4,64 L0,64 L0,32 Z M49,32 L53,32 L53,64 L49,64 L49,32 Z M98,32 L102,32 L102,64 L98,64 L98,32 Z M25,24 L29,24 L29,64 L25,64 L25,24 Z M73,14 L77,14 L77,64 L73,64 L73,14 Z M122,24 L126,24 L126,64 L122,64 L122,24 Z M220,24 L224,24 L224,65 L220,65 L220,24 Z M269,14 L273,14 L273,64 L269,64 L269,14 Z M146,32 L150,32 L150,64 L146,64 L146,32 Z M196,32 L200,32 L200,64 L196,64 L196,32 Z M245,32 L249,32 L249,64 L245,64 L245,32 Z M318,24 L322,24 L322,64 L318,64 L318,24 Z M294,32 L298,32 L298,64 L294,64 L294,32 Z M343,32 L347,32 L347,64 L343,64 L343,32 Z M418,24 L422,24 L422,64 L418,64 L418,24 Z M393,32 L397,32 L397,64 L393,64 L393,32 Z M442,32 L446,32 L446,64 L442,64 L442,32 Z M514,24 L518,24 L518,64 L514,64 L514,24 Z M490,32 L494,32 L494,64 L490,64 L490,32 Z M540,32 L544,32 L544,64 L540,64 L540,32 Z M613,24 L617,24 L617,64 L613,64 L613,24 Z M589,32 L593,32 L593,64 L589,64 L589,32 Z M637,32 L641,32 L641,64 L637,64 L637,32 Z M466,14 L470,14 L470,64 L466,64 L466,14 Z M662,14 L666,14 L666,64 L662,64 L662,14 Z M711,24 L715,24 L715,64 L711,64 L711,24 Z M687,32 L691,32 L691,64 L687,64 L687,32 Z M735,32 L739,32 L739,64 L735,64 L735,32 Z" id="Shape"></path>
            </g>
        </g>
    </g>
</svg>