<?xml version="1.0" encoding="UTF-8"?>
<svg width="772px" height="79px" viewBox="0 0 772 79" version="1.1" xmlns="http://www.w3.org/2000/svg" xmlns:xlink="http://www.w3.org/1999/xlink">
    <title>ruler-thin</title>
    <g id="Зђае-Graphics" stroke="none" stroke-width="1" fill="none" fill-rule="evenodd">
        <g id="ruler-thin" fill="#FFFFFF">
            <path d="M0,0 L772,0 L0,0 Z M7,3 L10,3 L10,40 L7,40 L7,3 Z M15,3 L18,3 L18,40 L15,40 L15,3 Z M23,3 L26,3 L26,40 L23,40 L23,3 Z M31,3 L34,3 L34,40 L31,40 L31,3 Z M39,3 L42,3 L42,77 L39,77 L39,3 Z M45,3 L48,3 L48,40 L45,40 L45,3 Z M53,3 L56,3 L56,40 L53,40 L53,3 Z M61,3 L64,3 L64,40 L61,40 L61,3 Z M69,3 L72,3 L72,40 L69,40 L69,3 Z M84,3 L88,3 L88,40 L84,40 L84,3 Z M92,3 L96,3 L96,40 L92,40 L92,3 Z M100,3 L104,3 L104,40 L100,40 L100,3 Z M108,3 L112,3 L112,40 L108,40 L108,3 Z M124,3 L127,3 L127,40 L124,40 L124,3 Z M132,3 L135,3 L135,40 L132,40 L132,3 Z M140,3 L143,3 L143,40 L140,40 L140,3 Z M148,3 L151,3 L151,40 L148,40 L148,3 Z M162,3 L165,3 L165,40 L162,40 L162,3 Z M170,3 L173,3 L173,40 L170,40 L170,3 Z M178,3 L181,3 L181,40 L178,40 L178,3 Z M186,3 L189,3 L189,40 L186,40 L186,3 Z M200,3 L204,3 L204,40 L200,40 L200,3 Z M208,3 L212,3 L212,40 L208,40 L208,3 Z M216,3 L220,3 L220,40 L216,40 L216,3 Z M224,3 L228,3 L228,40 L224,40 L224,3 Z M239,3 L242,3 L242,40 L239,40 L239,3 Z M247,3 L250,3 L250,40 L247,40 L247,3 Z M255,3 L258,3 L258,40 L255,40 L255,3 Z M263,3 L266,3 L266,40 L263,40 L263,3 Z M278,3 L281,3 L281,40 L278,40 L278,3 Z M286,3 L289,3 L289,40 L286,40 L286,3 Z M294,3 L297,3 L297,40 L294,40 L294,3 Z M302,3 L305,3 L305,40 L302,40 L302,3 Z M316,3 L319,3 L319,40 L316,40 L316,3 Z M324,3 L327,3 L327,40 L324,40 L324,3 Z M332,3 L335,3 L335,40 L332,40 L332,3 Z M340,3 L343,3 L343,40 L340,40 L340,3 Z M354,3 L358,3 L358,40 L354,40 L354,3 Z M362,3 L366,3 L366,40 L362,40 L362,3 Z M370,3 L374,3 L374,40 L370,40 L370,3 Z M379,3 L382,3 L382,40 L379,40 L379,3 Z M394,3 L397,3 L397,40 L394,40 L394,3 Z M402,3 L405,3 L405,40 L402,40 L402,3 Z M410,3 L413,3 L413,40 L410,40 L410,3 Z M418,3 L421,3 L421,40 L418,40 L418,3 Z M432,3 L435,3 L435,40 L432,40 L432,3 Z M440,3 L443,3 L443,40 L440,40 L440,3 Z M448,3 L451,3 L451,40 L448,40 L448,3 Z M456,3 L459,3 L459,40 L456,40 L456,3 Z M470,3 L474,3 L474,40 L470,40 L470,3 Z M478,3 L482,3 L482,40 L478,40 L478,3 Z M486,3 L490,3 L490,40 L486,40 L486,3 Z M494,3 L498,3 L498,40 L494,40 L494,3 Z M509,3 L513,3 L513,40 L509,40 L509,3 Z M517,3 L521,3 L521,40 L517,40 L517,3 Z M525,3 L529,3 L529,40 L525,40 L525,3 Z M533,3 L537,3 L537,40 L533,40 L533,3 Z M548,3 L551,3 L551,40 L548,40 L548,3 Z M556,3 L559,3 L559,40 L556,40 L556,3 Z M564,3 L567,3 L567,40 L564,40 L564,3 Z M572,3 L575,3 L575,40 L572,40 L572,3 Z M586,3 L589,3 L589,40 L586,40 L586,3 Z M594,3 L597,3 L597,40 L594,40 L594,3 Z M602,3 L605,3 L605,40 L602,40 L602,3 Z M610,3 L614,3 L614,40 L610,40 L610,3 Z M625,3 L629,3 L629,40 L625,40 L625,3 Z M633,3 L637,3 L637,40 L633,40 L633,3 Z M641,3 L645,3 L645,40 L641,40 L641,3 Z M649,3 L653,3 L653,40 L649,40 L649,3 Z M664,3 L667,3 L667,40 L664,40 L664,3 Z M672,3 L675,3 L675,40 L672,40 L672,3 Z M680,3 L683,3 L683,40 L680,40 L680,3 Z M688,3 L691,3 L691,40 L688,40 L688,3 Z M740,3 L744,3 L744,40 L740,40 L740,3 Z M748,3 L752,3 L752,40 L748,40 L748,3 Z M756,3 L760,3 L760,40 L756,40 L756,3 Z M764,3 L768,3 L768,40 L764,40 L764,3 Z M702,3 L705,3 L705,40 L702,40 L702,3 Z M710,3 L713,3 L713,40 L710,40 L710,3 Z M718,3 L721,3 L721,40 L718,40 L718,3 Z M726,3 L730,3 L730,40 L726,40 L726,3 Z M116,3 L119,3 L119,77 L116,77 L116,3 Z M77,3 L81,3 L81,55 L77,55 L77,3 Z M154,3 L157,3 L157,55 L154,55 L154,3 Z M231,3 L235,3 L235,55 L231,55 L231,3 Z M270,3 L273,3 L273,77 L270,77 L270,3 Z M193,3 L196,3 L196,77 L193,77 L193,3 Z M502,3 L505,3 L505,77 L502,77 L502,3 Z M425,3 L428,3 L428,77 L425,77 L425,3 Z M347,3 L351,3 L351,77 L347,77 L347,3 Z M309,3 L312,3 L312,55 L309,55 L309,3 Z M386,3 L389,3 L389,55 L386,55 L386,3 Z M464,4 L467,4 L467,56 L464,56 L464,4 Z M541,3 L544,3 L544,55 L541,55 L541,3 Z M618,3 L621,3 L621,55 L618,55 L618,3 Z M695,5 L698,5 L698,57 L695,57 L695,5 Z M579,3 L582,3 L582,77 L579,77 L579,3 Z M656,5 L659,5 L659,79 L656,79 L656,5 Z M733,3 L736,3 L736,77 L733,77 L733,3 Z" id="Shape"></path>
        </g>
    </g>
</svg>