<svg viewBox="0 0 1400 315" xmlns="http://www.w3.org/2000/svg" fill-rule="evenodd" clip-rule="evenodd" stroke-linejoin="round" stroke-miterlimit="1.414"><path d="M296.75.496c3.71-1.49 7.64.63 10.47 2.99 4.8 4.2 8.99 9.64 15.38 11.46 9.39 3 19.27 4.56 28.22 8.87 5.96 2.46 10.94 6.88 17.18 8.7 5.38 1.68 9.52 5.79 14.87 7.47 4.03 1.5 8.42 2.51 11.79 5.35 11.52 10.95 17.46 26 25.17 39.57 8.11 14.75 1.3 36.18-14.65 42.39-10.35 3.39-21.65 2.29-31.89-.91-13.63-4.29-25.94-11.7-38.44-18.44-4.28-2.22-8.85-3.81-13.36-5.48-12.46-4.39-25.14-8.38-38.21-10.51-30.24-5.59-59.78-16.99-90.94-15.9-6.47-.39-12.97 2.37-17.4 7.05-1.54 1.39-2.01 4.25.13 5.34 20.67 12.95 43.56 21.79 66.5 29.8 28.47 9.7 57.16 19.53 83.38 34.5 18.76 10.83 38.53 20.09 55.91 33.15 3.11 2.23 6.4 4.55 10.27 5.19 3.36.61 5.57-2.71 6.11-5.6 2.41-11.56-.48-23.92 4.11-35.09 3.01 2.01 6.94 4.84 10.57 2.57 4.81-3.42 6.11-9.81 10.52-13.64 4.32-3.82 11-3.67 15.85-.93 6.7 3.76 11.43 10.11 15.49 16.47 9.83 13.99 14.28 31.36 26.32 43.86 14.43-7.39 25.56-19.65 35.28-32.36 7.86-10.15 15.09-20.81 23.55-30.49 5.5-6.57 13.82-10.75 22.39-11.07 5.96-.21 12.1 1.8 16.31 6.13 7.02 6.6 9.49 16.33 11.65 25.38 2.44 10.36 4.87 21.31 12.09 29.53 10.16-14.68 10.65-33.82 21.23-48.26 3.47-5.04 7.49-10.22 8.03-16.53-.13-4.05-5.15-4.05-8.02-5.13-5.76-.86-7.16-9.77-2.28-12.65 4.84-4.53 13.04.92 17.28-4.64 2.84-3.04 3.82-8.71 8.71-9.06 23.13-4.83 47.22-2.94 70.01 2.75 15.17 3.98 30.21 9.14 43.74 17.19 13.83 8.16 25.8 19.53 34.34 33.15 2.38.64 5.96.5 6.62-2.46 1.35-7.78-2.13-15.29-2.68-22.97-.05-1.36-.14-2.96 1.04-3.92 4.41-2.19 10.24-2.29 14.19.95 5.89 4.86 8.75 12.18 12.13 18.8 4.61 9.58 9.52 19.99 19.05 25.62 18.63-14.83 37.02-30.11 57.22-42.82 4.36-2.69 8.63-5.64 13.45-7.47 9.78-3.87 20.99-3.8 30.82-.15 7.61 3.05 14.71 7.24 21.7 11.51 4.58 2.98 9.48 5.67 13.22 9.75 2.22 2.32 4.86 4.88 8.31 4.81 3.82-.42 6.39-3.56 9.31-5.7 30.33-23.95 66-42.42 104.59-47.86 24.9-3.67 50.71-1.47 74.48 6.87 6.67 2.45 12.45 7.13 16.27 13.11 10.03 15.63 8.53 36.13 20.06 51 .76 1.44 2.19-.02 2.86-.73 3.24-3.41 6.21-7.93 11.31-8.53 3.42.26 1.91 4.66 2.95 6.94 3.22 9.1 1.56 18.89-.24 28.1-1.11 7.02-3.06 14.33-1.04 21.37 1.29 4.56 5.76 7.42 10.29 7.99 44.22 6.39 89.91 3.92 132.8-8.91 9.13-2.67 18.05-5.945 26.88-9.466v84.58c-3.67-.51-7.3-1.274-10.88-2.324-19.39-5.34-39.4-8.15-59.45-9.36-51.41-3.06-102.76 4.58-154.2 2.34-3.27.01-7.11-1.56-7.69-5.15-1.06-10.71 5.6-22.24-.6-32.28-20.28 9.4-40.63 18.73-61.59 26.55-17.47 6.62-35.54 11.84-54.06 14.52-14.27 2.03-28.56 4.15-42.97 4.88-16.29.83-33.24-.11-48.33-6.88-11.22-5.04-20.53-14-26.15-24.93-3.52-6.85-6.85-14.53-5.29-22.39 1.74-9.96 8.18-18.2 14.54-25.74 2.05-2.63 5.29-5 5.07-8.72.35-2.17-1.25-4.41-3.48-4.53-16.46-2.48-33.68-.15-48.78 6.9-15.3 7.1-28.08 19.56-35.33 34.8-9.98 21.32-7.24 45.53-11.8 68.08-2.15 5.11-8.6 6.4-13.58 6.02-4.36-.06-7.82-2.92-11.2-5.29-13.21-9.31-24.6-21.21-33.32-34.82-4.61-8.08-2.46-17.64-2.52-26.43.23-6.59-1.53-13.49-6.16-18.37-12.15 11.54-28.76 16.23-44.66 19.94-14.76 3.59-30.01 7.26-42.61 16.14-1.94 2.06-2.13 5.69-.69 8.11 2.64 1.15 6.03.8 8.05 3.2 4.76 4.95 1.24 13.75-4.63 16.12-5.74 2.26-12.07 1.36-18.06 2.3-1.85 1.07-2.88 3.09-4.63 4.27-8.64 1.92-17.42-.86-25.19-4.54-1.86 1.63-4.69 3.06-4.71 5.88.08 15.97 2.76 22.914 4.35 33.624h-44.285c-9.395-32.822-5.527-22.222-12.675-55.574-.83-4.14-3.71-7.45-6.69-10.26-8.12-7.25-19.08-12.4-23.42-23-4.03-8.74-2.22-19.58-8.6-27.3-1.75-2.66-6.39-3.4-8.33-.65-8.22 16.04-9.86 34.66-18.96 50.32-5.36 8.91-12.95 16.89-22.61 21.07-5.1 2.24-10.36 4.15-15.77 5.5-8.59 1.24-17.36.76-25.95-.28-8.33-1.18-16.98-3.25-23.62-8.7-8.18-6.49-12.94-16.34-21.47-22.44-3.12-2.27-7.58-4.26-11.1-1.63-6.63 4.65-8.86 13.85-16.51 17.34-19.27 9.46-41.32 8.29-62.19 8.42-56.94 1.71-113.94-4.07-170.82.56-26.4 4.28-52.76 9.33-79.48 11.26-14.38 1.43-29.53 3.97-43.4-1.49-7.27-2.62-12.8-8.15-18.7-12.87-2.92-1.41-5.05-4.01-7.96-5.39-2.27-.364-4.584-.586-6.91-.777v-66.9c60.79 7.413 122.14 9.642 183.32 10.805 29.58.33 59.17 1.12 88.73-.36 3.22-.44 7.43-1.03 8.72-4.54-.57-3.34-.18-7.71-3.37-9.82-24.3-18.9-51.79-33.11-79.38-46.52-16.03-8.22-32.78-14.93-49.42-21.79-11.86-5.16-22.97-11.85-34.66-17.38-4.91-2.7-11.53-4.36-13.37-10.37-1.97-12.11-1.45-25.7 5.96-36 6.06-8.56 16.38-12.33 25.99-15.34 12.47-3.93 25.66-2.84 38.54-3.52 37.6-1.11 75.38-2.47 112.44-9.46 2.29-.75 5.71-.11 6.91-2.66-.62-4.4-4.66-8.66-2.41-13.19 2.24-4.25 4.42-9.07 8.75-11.57zm369.92 143.43c-4.64.97-6.46 6.05-7.04 10.22-4.33 28.47-17.21 55.78-15.04 85.07-.6 3.29 3.54 5.26 6.05 3.45 7.01-4.04 9.4-12.67 16.05-17.11 2.37-1.79 5.39-2.11 8.13-3.04 2.92-1.59 4.83-4.43 7.21-6.67 2.21-1.95 5.1-2.81 7.72-4.04 10.45-4.72 21.08-9.68 29.55-17.57 3.66-3.57 7.87-7.54 8.05-13.02-.24-5.62-3.98-10.3-7.8-14.1-8.27-7.9-17-15.67-27.45-20.55-7.84-3.79-16.99-4.93-25.43-2.64zm450.23-19.83c-12.29 2.19-23.8 7.28-34.93 12.75-11.19 5.21-22.34 10.65-32.42 17.82-15.55 10.7-28.58 25.11-37.34 41.84-.35 4.56 3.94 7.98 7.16 10.65 9.5 7.45 22.15 9.42 33.91 8.4 14.48-1.14 28.71-4.66 43.26-5.07 13.47-.97 27-2.26 40.11-5.67 14.43-3.65 28.53-10.51 38.48-21.83 3.63-3.91 4.79-9.62 3.91-14.78-1.15-7.46-4.75-14.3-9-20.43-6.1-8.52-13.74-16.34-23.41-20.7-9.25-4.25-19.82-4.9-29.73-2.98z" fill="#922829"/></svg>