<svg viewBox="0 0 48 32" xmlns="http://www.w3.org/2000/svg" fill-rule="evenodd" clip-rule="evenodd" stroke-linejoin="round" stroke-miterlimit="1.414"><path d="M22.477 29.653c-2.514-1.575-4.367-7.01-4.367-13.468 0-.237.002-.47.007-.705l.003.004c-6.994-1.1-12.048-4.11-12.177-7.672l-.02.04C4.21 9.98 3.232 12.44 3.232 15.06c0 7.71 8.464 14.026 19.2 14.585l.044.008zM0 15.623C0 6.994 10.736 0 23.98 0s23.98 6.995 23.98 15.622c0 8.627-10.736 15.622-23.98 15.622S0 24.25 0 15.622zm23.98-13.37c2.557 0 4.732 3.88 5.537 9.292l.003-.01c4.975-.773 8.457-2.56 8.457-4.638 0-2.79-6.267-5.048-13.997-5.048-7.73 0-13.996 2.258-13.996 5.047 0 2.08 3.482 3.865 8.456 4.64l.003.008c.806-5.412 2.98-9.29 5.537-9.29zm1.548 27.392c10.735-.56 19.2-6.876 19.2-14.586 0-2.62-.978-5.08-2.69-7.207l-.02-.04c-.13 3.56-5.182 6.572-12.177 7.67l.004-.003c.005.234.007.468.007.705 0 6.458-1.853 11.893-4.366 13.468l.044-.008zm-1.548-17.7c1.146 0 2.26-.048 3.325-.14h-.002c-.53-3.468-1.818-5.917-3.323-5.917s-2.792 2.45-3.323 5.917c1.064.092 2.178.14 3.323.14zm0 12.848c1.925 0 3.496-4.006 3.58-9.03l.01.003c-1.16.108-2.36.164-3.59.164s-2.43-.056-3.588-.164l.01-.004c.083 5.025 1.653 9.03 3.578 9.03z" fill="#bb3938"/></svg>