<?xml version="1.0" encoding="UTF-8" standalone="no"?><!DOCTYPE svg PUBLIC "-//W3C//DTD SVG 1.1//EN" "http://www.w3.org/Graphics/SVG/1.1/DTD/svg11.dtd"><svg width="100%" height="100%" viewBox="0 0 48 32" version="1.1" xmlns="http://www.w3.org/2000/svg" xmlns:xlink="http://www.w3.org/1999/xlink" xml:space="preserve" style="fill-rule:evenodd;clip-rule:evenodd;stroke-linejoin:round;stroke-miterlimit:1.41421;"><path d="M22.477,29.653c-2.514,-1.575 -4.367,-7.01 -4.367,-13.468c0,-0.237 0.002,-0.471 0.007,-0.705l0.003,0.004c-6.994,-1.099 -12.048,-4.111 -12.177,-7.672l-0.021,0.041c-1.711,2.127 -2.688,4.586 -2.688,7.206c0,7.71 8.463,14.027 19.198,14.586l0.045,0.008Zm-22.477,-14.031c0,-8.627 10.736,-15.622 23.98,-15.622c13.244,0 23.98,6.995 23.98,15.622c0,8.627 -10.736,15.622 -23.98,15.622c-13.244,0 -23.98,-6.995 -23.98,-15.622Zm23.98,-13.368c2.557,0 4.732,3.879 5.537,9.291l0.003,-0.009c4.975,-0.774 8.457,-2.56 8.457,-4.639c0,-2.789 -6.267,-5.048 -13.997,-5.048c-7.73,0 -13.996,2.259 -13.996,5.048c0,2.079 3.482,3.865 8.456,4.639l0.003,0.009c0.806,-5.412 2.981,-9.291 5.537,-9.291Zm1.548,27.391c10.735,-0.559 19.199,-6.876 19.199,-14.586c0,-2.62 -0.977,-5.079 -2.689,-7.206l-0.02,-0.041c-0.13,3.561 -5.182,6.573 -12.177,7.672l0.003,-0.004c0.005,0.234 0.007,0.468 0.007,0.705c0,6.458 -1.854,11.893 -4.367,13.468l0.044,-0.008Zm-1.548,-17.699c1.146,0 2.259,-0.049 3.325,-0.142l-0.002,0.001c-0.53,-3.468 -1.818,-5.917 -3.323,-5.917c-1.505,0 -2.792,2.449 -3.323,5.917l-0.001,-0.001c1.065,0.093 2.179,0.142 3.324,0.142Zm0,12.847c1.925,0 3.496,-4.006 3.579,-9.031l0.01,0.004c-1.16,0.108 -2.36,0.164 -3.589,0.164c-1.229,0 -2.429,-0.056 -3.588,-0.164l0.01,-0.004c0.083,5.025 1.653,9.031 3.578,9.031Z" style="fill:#bb3938;"/></svg>