<svg viewBox="0 0 360 1400" xmlns="http://www.w3.org/2000/svg" fill-rule="evenodd" clip-rule="evenodd" stroke-linejoin="round" stroke-miterlimit="1.414"><path d="M359.087 296.75c1.49 3.71-.63 7.64-2.99 10.47-4.2 4.8-9.64 8.99-11.46 15.38-3 9.39-4.56 19.27-8.87 28.22-2.46 5.96-6.88 10.94-8.7 17.18-1.68 5.38-5.79 9.52-7.47 14.87-1.5 4.03-2.51 8.42-5.35 11.79-10.95 11.52-26 17.46-39.57 25.17-14.75 8.11-36.18 1.3-42.39-14.65-3.39-10.35-2.29-21.65.91-31.89 4.29-13.63 11.7-25.94 18.44-38.44 2.22-4.28 3.81-8.85 5.48-13.36 4.39-12.46 8.38-25.14 10.51-38.21 5.59-30.24 16.99-59.78 15.9-90.94.39-6.47-2.37-12.97-7.05-17.4-1.39-1.54-4.25-2.01-5.34.13-12.95 20.67-21.79 43.56-29.8 66.5-9.7 28.47-19.53 57.16-34.5 83.38-10.83 18.76-20.09 38.53-33.15 55.91-2.23 3.11-4.55 6.4-5.19 10.27-.61 3.36 2.71 5.57 5.6 6.11 11.56 2.41 23.92-.48 35.09 4.11-2.01 3.01-4.84 6.94-2.57 10.57 3.42 4.81 9.81 6.11 13.64 10.52 3.82 4.32 3.67 11 .93 15.85-3.76 6.7-10.11 11.43-16.47 15.49-13.99 9.83-31.36 14.28-43.86 26.32 7.39 14.43 19.65 25.56 32.36 35.28 10.15 7.86 20.81 15.09 30.49 23.55 6.57 5.5 10.75 13.82 11.07 22.39.21 5.96-1.8 12.1-6.13 16.31-6.6 7.02-16.33 9.49-25.38 11.65-10.36 2.44-21.31 4.87-29.53 12.09 14.68 10.16 33.82 10.65 48.26 21.23 5.04 3.47 10.22 7.49 16.53 8.03 4.05-.13 4.05-5.15 5.13-8.02.86-5.76 9.77-7.16 12.65-2.28 4.53 4.84-.92 13.04 4.64 17.28 3.04 2.84 8.71 3.82 9.06 8.71 4.83 23.13 2.94 47.22-2.75 70.01-3.98 15.17-9.14 30.21-17.19 43.74-8.16 13.83-19.53 25.8-33.15 34.34-.64 2.38-.5 5.96 2.46 6.62 7.78 1.35 15.29-2.13 22.97-2.68 1.36-.05 2.96-.14 3.92 1.04 2.19 4.41 2.29 10.24-.95 14.19-4.86 5.89-12.18 8.75-18.8 12.13-9.58 4.61-19.99 9.52-25.62 19.05 14.83 18.63 30.11 37.02 42.82 57.22 2.69 4.36 5.64 8.63 7.47 13.45 3.87 9.78 3.8 20.99.15 30.82-3.05 7.61-7.24 14.71-11.51 21.7-2.98 4.58-5.67 9.48-9.75 13.22-2.32 2.22-4.88 4.86-4.81 8.31.42 3.82 3.56 6.39 5.7 9.31 23.95 30.33 42.42 66 47.86 104.59 3.67 24.9 1.47 50.71-6.87 74.48-2.45 6.67-7.13 12.45-13.11 16.27-15.63 10.03-36.13 8.53-51 20.06-1.44.76.02 2.19.73 2.86 3.41 3.24 7.93 6.21 8.53 11.31-.26 3.42-4.66 1.91-6.94 2.95-9.1 3.22-18.89 1.56-28.1-.24-7.02-1.11-14.33-3.06-21.37-1.04-4.56 1.29-7.42 5.76-7.99 10.29-6.39 44.22-3.92 89.91 8.91 132.8 2.67 9.13 5.945 18.05 9.466 26.88h-84.58c.51-3.67 1.274-7.3 2.324-10.88 5.34-19.39 8.15-39.4 9.36-59.45 3.06-51.41-4.58-102.76-2.34-154.2-.01-3.27 1.56-7.11 5.15-7.69 10.71-1.06 22.24 5.6 32.28-.6-9.4-20.28-18.73-40.63-26.55-61.59-6.62-17.47-11.84-35.54-14.52-54.06-2.03-14.27-4.15-28.56-4.88-42.97-.83-16.29.11-33.24 6.88-48.33 5.04-11.22 14-20.53 24.93-26.15 6.85-3.52 14.53-6.85 22.39-5.29 9.96 1.74 18.2 8.18 25.74 14.54 2.63 2.05 5 5.29 8.72 5.07 2.17.35 4.41-1.25 4.53-3.48 2.48-16.46.15-33.68-6.9-48.78-7.1-15.3-19.56-28.08-34.8-35.33-21.32-9.98-45.53-7.24-68.08-11.8-5.11-2.15-6.4-8.6-6.02-13.58.06-4.36 2.92-7.82 5.29-11.2 9.31-13.21 21.21-24.6 34.82-33.32 8.08-4.61 17.64-2.46 26.43-2.52 6.59.23 13.49-1.53 18.37-6.16-11.54-12.15-16.23-28.76-19.94-44.66-3.59-14.76-7.26-30.01-16.14-42.61-2.06-1.94-5.69-2.13-8.11-.69-1.15 2.64-.8 6.03-3.2 8.05-4.95 4.76-13.75 1.24-16.12-4.63-2.26-5.74-1.36-12.07-2.3-18.06-1.07-1.85-3.09-2.88-4.27-4.63-1.92-8.64.86-17.42 4.54-25.19-1.63-1.86-3.06-4.69-5.88-4.71-15.97.08-31.66 3.35-47.43 5.51-10.15 1.296-20.59 2.2-30.777.916v-37.82c32.822-9.396 66.805-14.068 100.157-21.216 4.14-.83 7.45-3.71 10.26-6.69 7.25-8.12 12.4-19.08 23-23.42 8.74-4.03 19.58-2.22 27.3-8.6 2.66-1.75 3.4-6.39.65-8.33-16.04-8.22-34.66-9.86-50.32-18.96-8.91-5.36-16.89-12.95-21.07-22.61-2.24-5.1-4.15-10.36-5.5-15.77-1.24-8.59-.76-17.36.28-25.95 1.18-8.33 3.25-16.98 8.7-23.62 6.49-8.18 16.34-12.94 22.44-21.47 2.27-3.12 4.26-7.58 1.63-11.1-4.65-6.63-13.85-8.86-17.34-16.51-9.46-19.27-8.29-41.32-8.42-62.19-1.71-56.94 4.07-113.94-.56-170.82-4.28-26.4-9.33-52.76-11.26-79.48-1.43-14.38-3.97-29.53 1.49-43.4 2.62-7.27 8.15-12.8 12.87-18.7 1.41-2.92 4.01-5.05 5.39-7.96.364-2.27.586-4.584.777-6.91h66.898c-7.413 60.79-9.642 122.14-10.805 183.32-.33 29.58-1.12 59.17.36 88.73.44 3.22 1.03 7.43 4.54 8.72 3.34-.57 7.71-.18 9.82-3.37 18.9-24.3 33.11-51.79 46.52-79.38 8.22-16.03 14.93-32.78 21.79-49.42 5.16-11.86 11.85-22.97 17.38-34.66 2.7-4.91 4.36-11.53 10.37-13.37 12.11-1.97 25.7-1.45 36 5.96 8.56 6.06 12.33 16.38 15.34 25.99 3.93 12.47 2.84 25.66 3.52 38.54 1.11 37.6 2.47 75.38 9.46 112.44.75 2.29.11 5.71 2.66 6.91 4.4-.62 8.66-4.66 13.19-2.41 4.25 2.24 9.07 4.42 11.57 8.75zm-143.43 369.92c-.97-4.64-6.05-6.46-10.22-7.04-28.47-4.33-55.78-17.21-85.07-15.04-3.29-.6-5.26 3.54-3.45 6.05 4.04 7.01 12.67 9.4 17.11 16.05 1.79 2.37 2.11 5.39 3.04 8.13 1.59 2.92 4.43 4.83 6.67 7.21 1.95 2.21 2.81 5.1 4.04 7.72 4.72 10.45 9.68 21.08 17.57 29.55 3.57 3.66 7.54 7.87 13.02 8.05 5.62-.24 10.3-3.98 14.1-7.8 7.9-8.27 15.67-17 20.55-27.45 3.79-7.84 4.93-16.99 2.64-25.43zm19.83 450.23c-2.19-12.29-7.28-23.8-12.75-34.93-5.21-11.19-10.65-22.34-17.82-32.42-10.7-15.55-25.11-28.58-41.84-37.34-4.56-.35-7.98 3.94-10.65 7.16-7.45 9.5-9.42 22.15-8.4 33.91 1.14 14.48 4.66 28.71 5.07 43.26.97 13.47 2.26 27 5.67 40.11 3.65 14.43 10.51 28.53 21.83 38.48 3.91 3.63 9.62 4.79 14.78 3.91 7.46-1.15 14.3-4.75 20.43-9 8.52-6.1 16.34-13.74 20.7-23.41 4.25-9.25 4.9-19.82 2.98-29.73z" fill="#F1F1F1"/></svg>