<svg viewBox="0 0 752 490" xmlns="http://www.w3.org/2000/svg"><path d="M352.433 465.048c-39.418-24.7-68.473-109.938-68.473-211.218 0-3.717.03-7.387.11-11.057l.047.063C174.453 225.6 95.207 178.363 93.185 122.516l-.33.643c-26.828 33.356-42.147 71.92-42.147 113.01 0 120.916 132.698 219.986 301.02 228.753l.705.125zM0 245C0 109.703 168.338 0 376 0s376 109.703 376 245-168.338 245-376 245S0 380.297 0 245zM376 35.35c40.093 0 74.196 60.834 86.82 145.71l.046-.14c78.006-12.14 132.603-40.15 132.603-72.754 0-43.74-98.266-79.168-219.47-79.168s-219.454 35.428-219.454 79.168c0 32.605 54.597 60.615 132.588 72.753l.047.14C301.82 96.184 335.924 35.35 376 35.35zm24.272 429.573c168.322-8.767 301.035-107.837 301.035-228.753 0-41.09-15.32-79.654-42.162-113.01l-.314-.644c-2.037 55.847-81.25 103.084-190.93 120.32l.046-.063c.078 3.67.11 7.34.11 11.057 0 101.28-29.07 186.518-68.474 211.218l.69-.125zM376 187.35c17.97 0 35.42-.77 52.135-2.228l-.03.016c-8.312-54.39-28.507-92.796-52.105-92.796-23.598 0-43.778 38.407-52.104 92.796l-.015-.016c16.7 1.46 34.167 2.227 52.12 2.227zm0 201.48c30.183 0 54.816-62.827 56.118-141.634l.157.062c-18.19 1.694-37.005 2.572-56.275 2.572-19.27 0-38.086-.878-56.26-2.572l.158-.062c1.3 78.807 25.92 141.633 56.102 141.633z" fill="#E5E5E5" fill-rule="evenodd"/></svg>