<?xml version="1.0" encoding="UTF-8"?>
<svg width="752px" height="490px" viewBox="0 0 752 490" version="1.1" xmlns="http://www.w3.org/2000/svg" xmlns:xlink="http://www.w3.org/1999/xlink">
    <!-- Generator: Sketch 47.1 (45422) - http://www.bohemiancoding.com/sketch -->
    <title>Shape</title>
    <desc>Created with Sketch.</desc>
    <defs></defs>
    <g id="Update-Posts" stroke="none" stroke-width="1" fill="none" fill-rule="evenodd">
        <path d="M352.433361,465.048329 C313.014512,440.347587 283.959967,355.110421 283.959967,253.829535 C283.959967,250.112662 283.991326,246.442837 284.069725,242.773012 L284.116764,242.835744 C174.452711,225.600115 95.2073394,178.362886 93.1846539,122.515683 L92.8553795,123.158686 C66.0273561,156.516451 50.7082569,195.080976 50.7082569,236.170465 C50.7082569,357.086481 183.405838,456.156062 351.727773,464.922865 L352.433361,465.048329 Z M0,245 C0,109.702663 168.337615,0 376,0 C583.662385,0 752,109.702663 752,245 C752,380.297337 583.662385,490 376,490 C168.337615,490 0,380.297337 0,245 Z M376,35.3495071 C416.093078,35.3495071 450.196497,96.1839073 462.818682,181.060364 L462.865721,180.919216 C540.872394,168.780566 595.469224,140.770708 595.469224,108.165728 C595.469224,64.4258098 497.204337,28.9978876 376,28.9978876 C254.795663,28.9978876 156.546455,64.4258098 156.546455,108.165728 C156.546455,140.770708 211.143286,168.780566 289.134279,180.919216 L289.181318,181.060364 C301.819183,96.1839073 335.922602,35.3495071 376,35.3495071 Z M400.272227,464.922865 C568.594162,456.156062 701.307423,357.086481 701.307423,236.170465 C701.307423,195.080976 685.988324,156.516451 659.144621,123.158686 L658.831026,122.515683 C656.792661,178.362886 577.578649,225.600115 467.898916,242.835744 L467.945955,242.773012 C468.024354,246.442837 468.055713,250.112662 468.055713,253.829535 C468.055713,355.110421 438.985488,440.347587 399.582319,465.048329 L400.272227,464.922865 Z M376,187.349251 C393.968974,187.349251 411.420517,186.580784 428.135113,185.122263 L428.103753,185.137946 C419.793495,130.749264 399.597998,92.3415696 376,92.3415696 C352.402002,92.3415696 332.222185,130.749264 323.896247,185.137946 L323.880567,185.122263 C340.579483,186.580784 358.046706,187.349251 376,187.349251 Z M376,388.828895 C406.183486,388.828895 430.816347,326.002753 432.117765,247.195622 L432.274562,247.258354 C414.086072,248.952119 395.270392,249.830367 376,249.830367 C356.729608,249.830367 337.913928,248.952119 319.741118,247.258354 L319.897915,247.195622 C321.199333,326.002753 345.816514,388.828895 376,388.828895 Z" id="Shape" fill="#E5E5E5"></path>
    </g>
</svg>